<?xml version="1.0" encoding="utf-8"?>
<!-- Generator: Adobe Illustrator 24.0.0, SVG Export Plug-In . SVG Version: 6.00 Build 0)  -->
<svg version="1.1" id="Layer_1" xmlns="http://www.w3.org/2000/svg" xmlns:xlink="http://www.w3.org/1999/xlink" x="0px" y="0px"
	 viewBox="0 0 600 600" enable-background="new 0 0 600 600" xml:space="preserve">
<g>
	<g>
		<path fill="#FAC0C1" d="M306.089,110.809c0,4.488-5.441,16.105-5.441,16.105s-6.617-11.617-6.617-16.105
			c0-4.488,6.617-17.287,6.617-17.287S306.089,106.321,306.089,110.809z"/>
	</g>
	<g>
		<path fill="#FAC0C1" d="M257.104,117.352c1.528,4.217,0.369,17.003,0.369,17.003s-10.172-8.642-11.7-12.859
			c-1.528-4.217,0.334-18.518,0.334-18.518S255.576,113.135,257.104,117.352z"/>
	</g>
	<g>
		<path fill="#FAC0C1" d="M354.348,121.496c-1.528,4.217-10.595,13.264-10.595,13.264s-2.263-13.19-0.736-17.407
			c1.528-4.217,12.102-13.97,12.102-13.97S355.876,117.278,354.348,121.496z"/>
	</g>
	<g>
		<path fill="#F8B2B6" d="M254.872,110.329l0.876,7.041c0,0-11.095-2.201-11.971-4.107c-0.876-1.907,0.584-2.787,0.584-2.787
			L254.872,110.329z"/>
	</g>
	<g>
		<g>
			<path fill="#4A5EAA" d="M327.663,519.346h-50.342c-7.229,0-13.089-5.888-13.089-13.152v-50.583
				c0-7.263,5.86-13.152,13.089-13.152h50.342c7.229,0,13.089,5.888,13.089,13.152v50.583
				C340.751,513.458,334.891,519.346,327.663,519.346z"/>
		</g>
		<g>
			<g>
				<polygon fill="#FFFFFF" points="308.23,496.816 301.969,503.107 272.371,473.367 278.632,467.076 				"/>
			</g>
			<g>
				<polygon fill="#FFFFFF" points="295.983,496.816 302.245,503.107 331.843,473.367 325.581,467.076 				"/>
			</g>
		</g>
	</g>
	<g>
		<g>
			<g>
				<path fill="#4A5EAA" d="M239.442,519.346H189.1c-7.229,0-13.089-5.888-13.089-13.152v-50.583c0-7.263,5.86-13.152,13.089-13.152
					h50.341c7.229,0,13.089,5.888,13.089,13.152v50.583C252.531,513.458,246.671,519.346,239.442,519.346z"/>
			</g>
			<g>
				<g>
					<polygon fill="#FFFFFF" points="220.01,496.816 213.749,503.107 184.15,473.367 190.412,467.076 					"/>
				</g>
				<g>
					<polygon fill="#FFFFFF" points="207.763,496.816 214.024,503.107 243.622,473.367 237.361,467.076 					"/>
				</g>
			</g>
		</g>
		<g>
			<g>
				<path fill="#BCBCBB" d="M415.883,519.346h-50.342c-7.229,0-13.089-5.888-13.089-13.152v-50.583
					c0-7.263,5.86-13.152,13.089-13.152h50.342c7.229,0,13.089,5.888,13.089,13.152v50.583
					C428.972,513.458,423.112,519.346,415.883,519.346z"/>
			</g>
		</g>
	</g>
	<g>
		<polygon fill="#0D133D" points="314.909,375.975 302.579,377.596 302.579,377.089 290.075,375.451 302.579,473.867 		"/>
	</g>
	<g>
		<rect x="251.13" y="244.775" fill="#FAC0C1" width="102.724" height="142.669"/>
	</g>
	<g>
		<g>
			<path fill="#F6948F" d="M364.589,260.148H240.395c-6.779,0-12.275-4.682-12.275-10.458v-8.613
				c0-5.776,5.495-10.458,12.275-10.458h124.195c6.779,0,12.275,4.682,12.275,10.458v8.613
				C376.864,255.466,371.368,260.148,364.589,260.148z"/>
		</g>
	</g>
	<g>
		<g>
			<path fill="#F6948F" d="M364.589,404.131H240.395c-6.779,0-12.275-4.682-12.275-10.458v-8.612
				c0-5.776,5.495-10.458,12.275-10.458h124.195c6.779,0,12.275,4.682,12.275,10.458v8.612
				C376.864,399.449,371.368,404.131,364.589,404.131z"/>
		</g>
	</g>
	<g>
		<path fill="#0D133D" d="M308.223,102.715c-7.71-0.001-26.05,12.564-26.05,12.564l-27.339-5.143l-1.836,6.539l31.237,8.862
			c0,0,19.275-6.158,23.686-11.605C312.332,108.485,312.696,102.716,308.223,102.715z"/>
	</g>
	<g>
		<path fill="#F8B2B6" d="M383.359,117.134l-0.876,7.041c0,0,11.095-2.2,11.971-4.107c0.876-1.907-0.584-2.787-0.584-2.787
			L383.359,117.134z"/>
	</g>
	<g>
		<path fill="#0D133D" d="M328.715,108.822c6.425,0,25.702,13.262,25.702,13.262l28.98-5.143l1.836,6.539l-31.237,8.862
			c0,0-19.275-6.158-23.686-11.605C325.899,115.291,324.242,108.822,328.715,108.822z"/>
	</g>
	<g>
		<path fill="#0D133D" d="M321.605,154.567l-31.434-0.052l9.505-43.821c0.734-3.487,6.482-8.893,9.878-7.865l22.726,6.68
			c3.396,1.028,5.191,4.754,3.886,8.068L321.605,154.567z"/>
	</g>
	<g>
		<path fill="#E98896" d="M323.03,109.286l-3.961-1.199c-1.23-0.373-1.889-1.804-1.472-3.197l1.47-4.904
			c0.417-1.393,1.753-2.22,2.984-1.848l3.96,1.199c1.231,0.372,1.889,1.803,1.472,3.196l-1.47,4.904
			C325.597,108.832,324.261,109.659,323.03,109.286z"/>
	</g>
	<g>
		<defs>
			<path id="SVGID_1_" d="M314.534,95.856c-0.031,5.89,4.719,6.424,10.581,6.455c5.862,0.031,10.639-4.719,10.67-10.609
				c0.031-5.89-4.696-10.69-10.559-10.722C319.364,80.949,314.565,89.965,314.534,95.856z"/>
		</defs>
		<use xlink:href="#SVGID_1_"  overflow="visible" fill="#F8B2B6"/>
		<clipPath id="SVGID_2_">
			<use xlink:href="#SVGID_1_"  overflow="visible"/>
		</clipPath>
		<g clip-path="url(#SVGID_2_)">
			<path fill="#F6948F" d="M329.194,87.685c0,0-1.081,3.606-0.586,3.756c0.495,0.15,2.575-0.034,3.415,2.119
				c0.84,2.153-1.168,3.445-2.888,3.331s-1.875,4.451,2.186,4.866c4.06,0.415,8.144-8.251,7.207-12.332
				c-0.936-4.082-6.093-9.847-8.395-10.273c-2.302-0.425-25.904,0.932-25.904,0.932L329.194,87.685z"/>
		</g>
	</g>
	<g>
		<path fill="#F6948F" d="M321.605,154.567l-31.434-0.052l-0.002,71.403h6.23c0,0,4.716-35.225,6.493-54.693h4.318l10.564,25.543
			l31.259,11.517l3.385-5.716l-25.266-12.431c0,0-5.168-24.841-5.259-29.722C322.059,159.624,321.605,154.567,321.605,154.567z"/>
	</g>
	<g>
		<path fill="#263B97" d="M290.082,225.827h6.333v4.882H283.57c-0.848,0-1.139-1.914-0.397-2.326L290.082,225.827z"/>
	</g>
	<g>
		<path fill="#263B97" d="M348.099,207.525l3.506-5.3l4.046,2.702l-7.111,10.749c-0.469,0.71-2.217-0.106-2.148-0.955
			L348.099,207.525z"/>
	</g>
	<g>
		<path fill="#FAC0C1" d="M213.299,140.335c2.871,3.438,6.135,15.851,6.135,15.851s-12.5-4.625-15.371-8.063
			c-2.871-3.438-5.99-17.516-5.99-17.516S210.427,136.897,213.299,140.335z"/>
	</g>
	<g>
		<path fill="#FAC0C1" d="M179.958,176.985c3.868,2.244,11.16,12.787,11.16,12.787s-13.321-0.05-17.189-2.294
			c-3.868-2.244-11.591-14.401-11.591-14.401S176.091,174.741,179.958,176.985z"/>
	</g>
	<g>
		<path fill="#FAC0C1" d="M161.105,222.883c4.399,0.779,14.839,8.18,14.839,8.18s-12.535,4.53-16.933,3.751
			c-4.399-0.779-15.794-9.55-15.794-9.55S156.706,222.104,161.105,222.883z"/>
	</g>
	<g>
		<path fill="#FAC0C1" d="M159.011,272.492c4.399-0.779,16.729,2.587,16.729,2.587s-10.237,8.565-14.635,9.344
			c-4.399,0.779-18.092-3.546-18.092-3.546S154.612,273.272,159.011,272.492z"/>
	</g>
	<g>
		<path fill="#FAC0C1" d="M173.93,319.83c3.868-2.244,16.601-3.318,16.601-3.318s-6.704,11.566-10.572,13.81
			c-3.868,2.244-18.208,2.885-18.208,2.885S170.062,322.073,173.93,319.83z"/>
	</g>
	<g>
		<path fill="#FAC0C1" d="M204.062,359.184c2.871-3.438,14.47-8.823,14.47-8.823s-2.362,13.173-5.233,16.611
			c-2.871,3.438-16.128,8.969-16.128,8.969S201.191,362.622,204.062,359.184z"/>
	</g>
	<g>
		<path fill="#FAC0C1" d="M386.823,366.972c-2.871-3.438-6.135-15.851-6.135-15.851s12.5,4.625,15.371,8.063
			c2.871,3.438,5.99,17.516,5.99,17.516S389.694,370.41,386.823,366.972z"/>
	</g>
	<g>
		<path fill="#FAC0C1" d="M420.162,330.322c-3.868-2.244-11.16-12.787-11.16-12.787s13.321,0.05,17.189,2.295
			c3.868,2.244,11.591,14.401,11.591,14.401S424.031,332.566,420.162,330.322z"/>
	</g>
	<g>
		<path fill="#FAC0C1" d="M439.016,284.424c-4.399-0.779-14.839-8.18-14.839-8.18s12.535-4.53,16.933-3.751
			c4.399,0.779,15.794,9.55,15.794,9.55S443.415,285.203,439.016,284.424z"/>
	</g>
	<g>
		<path fill="#FAC0C1" d="M441.11,234.814c-4.399,0.779-16.729-2.587-16.729-2.587s10.237-8.565,14.635-9.344
			c4.399-0.78,18.092,3.546,18.092,3.546S445.509,234.035,441.11,234.814z"/>
	</g>
	<g>
		<path fill="#FAC0C1" d="M426.191,187.477c-3.868,2.244-16.601,3.318-16.601,3.318s6.704-11.566,10.572-13.811
			c3.868-2.244,18.208-2.885,18.208-2.885S430.059,185.233,426.191,187.477z"/>
	</g>
	<g>
		<path fill="#FAC0C1" d="M396.059,148.122c-2.871,3.438-14.47,8.823-14.47,8.823s2.363-13.172,5.234-16.61
			c2.871-3.438,16.127-8.969,16.127-8.969S398.93,144.684,396.059,148.122z"/>
	</g>
</g>
</svg>
