<?xml version="1.0" encoding="utf-8"?>
<!-- Generator: Adobe Illustrator 24.0.0, SVG Export Plug-In . SVG Version: 6.00 Build 0)  -->
<svg version="1.1" id="Layer_1" xmlns="http://www.w3.org/2000/svg" xmlns:xlink="http://www.w3.org/1999/xlink" x="0px" y="0px"
	 viewBox="0 0 32 40" enable-background="new 0 0 32 40" xml:space="preserve">
<g>
	<path fill="#056674" d="M16,3C8.82,3,3,8.82,3,16s5.82,13,13,13s13-5.82,13-13S23.18,3,16,3 M16,5c6.065,0,11,4.935,11,11
		s-4.935,11-11,11S5,22.065,5,16S9.935,5,16,5"/>
	<path fill="#056674" d="M13.879,20.951l0.001,0.001l8.491-8.49l-1.415-1.415l-7.077,7.078l-2.835-2.835L9.63,16.704L13.879,20.951
		C13.878,20.952,13.879,20.951,13.879,20.951z"/>
</g>
</svg>
