<svg id="Layer_1" data-name="Layer 1" xmlns="http://www.w3.org/2000/svg" xmlns:xlink="http://www.w3.org/1999/xlink" viewBox="0 0 450.36 491.01"><defs><style>.cls-1{fill:none;}.cls-2{fill:#263b97;}.cls-3{fill:#fac0c1;}.cls-4{fill:#4a5eaa;}.cls-5{fill:#f6948f;}.cls-6{fill:#e98896;}.cls-7{fill:#f8b2b6;}.cls-8{fill:#804e4f;}.cls-9{clip-path:url(#clip-path);}.cls-10{fill:#ccc;}.cls-11{clip-path:url(#clip-path-2);}.cls-12{fill:#fde2e3;}.cls-13{fill:#fff;}.cls-14{clip-path:url(#clip-path-3);}.cls-15{fill:#0d133d;}.cls-16{fill:#fac9ce;}.cls-17{clip-path:url(#clip-path-4);}.cls-18{clip-path:url(#clip-path-5);}.cls-19{clip-path:url(#clip-path-6);}.cls-20{clip-path:url(#clip-path-7);}.cls-21{clip-path:url(#clip-path-8);}.cls-22{clip-path:url(#clip-path-9);}</style><clipPath id="clip-path" transform="translate(-72.29 -54.49)"><path class="cls-1" d="M121.49,292.35c5.66,10.33-2.23,15.81-12.56,21.47A21.33,21.33,0,1,1,88.45,276.4C98.78,270.75,115.83,282,121.49,292.35Z"/></clipPath><clipPath id="clip-path-2" transform="translate(-72.29 -54.49)"><path class="cls-1" d="M319.55,266.17H375l-7.63-28.3,14.55-45.31c.62-6-5.18-11.16-12.57-11.16H325.2c-7.39,0-13.19,5.15-12.57,11.16l15.73,45.31Z"/></clipPath><clipPath id="clip-path-3" transform="translate(-72.29 -54.49)"><path class="cls-1" d="M396.94,381.62H358.18l-9.93-62.45c-.53-5.09,4.4-9.46,10.66-9.46h40.36c6.26,0,11.18,4.37,10.66,9.46Z"/></clipPath><clipPath id="clip-path-4" transform="translate(-72.29 -54.49)"><rect class="cls-1" x="289.05" y="217.78" width="45.01" height="45.01" rx="7.7"/></clipPath><clipPath id="clip-path-5" transform="translate(-72.29 -54.49)"><rect class="cls-1" x="158.77" y="281.81" width="45.01" height="45.01" rx="7.7"/></clipPath><clipPath id="clip-path-6" transform="translate(-72.29 -54.49)"><rect class="cls-1" x="223.91" y="345.85" width="45.01" height="45.01" rx="7.7"/></clipPath><clipPath id="clip-path-7" transform="translate(-72.29 -54.49)"><path class="cls-1" d="M352.86,172.14c-7,5.89-12.39.71-18.27-6.31s-5.79-17.13,1.23-23S354.12,137,360,144,359.88,166.26,352.86,172.14Z"/></clipPath><clipPath id="clip-path-8" transform="translate(-72.29 -54.49)"><path class="cls-1" d="M358.18,381.62h38.76s10.11,11.82,17.22,47c6.08,30.1,12.36,75.64,12.36,75.64H334.31s6.62-67,11.79-88.75C351.44,393.07,358.18,381.62,358.18,381.62Z"/></clipPath><clipPath id="clip-path-9" transform="translate(-72.29 -54.49)"><polygon class="cls-1" points="447.09 486.26 493.18 486.26 485.15 545.35 455.13 545.35 447.09 486.26"/></clipPath></defs><title>main_</title><path class="cls-2" d="M459.41,495.4c-4-.79-14.7-9.14-23.45-32.19-5-13.16-19.07-81.06,0-85.83s15.5,29.41,15.5,60.8C451.46,457.32,459.41,495.4,459.41,495.4Z" transform="translate(-72.29 -54.49)"/><path class="cls-2" d="M468.15,498.58c-10-.67-7.95-102.13-8.74-126s-5.56-112.86,7.95-127.16,27.42-1.59,28.61,16.89c.56,8.76-2.39,72.52-4,90.8s-3.57,59.61-5.16,85.83S480.07,499.38,468.15,498.58Z" transform="translate(-72.29 -54.49)"/><path class="cls-2" d="M486.83,499.77s22.27-43.93,27.82-77.88c9.93-60.8,11.92-120-1.59-119.22s-14.49,60.41-15.1,85.84c-1.59,66-17.09,107.29-17.09,107.29Z" transform="translate(-72.29 -54.49)"/><path class="cls-3" d="M484.91,498l-.93-.33c.08-.22,7.93-22,13.12-36.56,10.19-28.61,11.88-66.63,11.89-67l1,0c0,.38-1.71,38.56-12,67.3C492.83,476,485,497.73,484.91,498Z" transform="translate(-72.29 -54.49)"/><path class="cls-3" d="M471.42,491.83h-1c0-13.57,2.37-53.28,2.39-53.68l1,.06C473.78,438.61,471.42,478.29,471.42,491.83Z" transform="translate(-72.29 -54.49)"/><path class="cls-3" d="M455.58,495c-.08-.2-8.41-20.51-13.14-38.81a127.83,127.83,0,0,1-3.59-35.92l1,.07a126.73,126.73,0,0,0,3.56,35.61c4.71,18.23,13,38.48,13.09,38.68Z" transform="translate(-72.29 -54.49)"/><path class="cls-4" d="M476.89,439a3,3,0,1,1-3-3A3,3,0,0,1,476.89,439Z" transform="translate(-72.29 -54.49)"/><path class="cls-4" d="M442.32,420.69a3,3,0,1,1-3-3A3,3,0,0,1,442.32,420.69Z" transform="translate(-72.29 -54.49)"/><path class="cls-4" d="M512.46,394.07a3,3,0,1,1-3-3A3,3,0,0,1,512.46,394.07Z" transform="translate(-72.29 -54.49)"/><path class="cls-4" d="M277.36,154.17l-16.67,7.63a3,3,0,0,1-4.21-3l1.73-18.25a3,3,0,0,1,4.69-2.15L277.84,149A3,3,0,0,1,277.36,154.17Z" transform="translate(-72.29 -54.49)"/><path class="cls-4" d="M218,180l17.75,14.1a3.68,3.68,0,0,1-.93,6.31l-21.09,8.33a3.69,3.69,0,0,1-5-4L212,182.37A3.68,3.68,0,0,1,218,180Z" transform="translate(-72.29 -54.49)"/><path class="cls-4" d="M241.86,158.91l1.65,13.68a2.24,2.24,0,0,1-3.1,2.33l-12.67-5.42a2.23,2.23,0,0,1-.47-3.84l11-8.27A2.24,2.24,0,0,1,241.86,158.91Z" transform="translate(-72.29 -54.49)"/><path class="cls-4" d="M266.65,197.35l-15.93-9.07a3,3,0,0,1,0-5.16l15.83-9.26a3,3,0,0,1,4.48,2.55l.11,18.33A3,3,0,0,1,266.65,197.35Z" transform="translate(-72.29 -54.49)"/><path class="cls-2" d="M253.51,225.17c-.68-1.25-1.36-2.48-2-3.7-7.63-13.74-14.84-26.72-4.07-44.36s18.38-27.94,18.46-28l.78.58c-.07.1-7.67,10.41-18.4,28-10.47,17.16-3.4,29.89,4.08,43.37.68,1.23,1.37,2.46,2.05,3.71Z" transform="translate(-72.29 -54.49)"/><rect class="cls-2" x="241.13" y="164.52" width="0.98" height="17.11" transform="translate(-127.49 103.49) rotate(-32.7)"/><rect class="cls-2" x="233.6" y="188.43" width="0.98" height="17.11" transform="translate(-70 342.16) rotate(-80.82)"/><rect class="cls-2" x="243.84" y="185.33" width="17.11" height="0.98" transform="translate(-82.09 -40.38) rotate(-3.14)"/><path class="cls-4" d="M224.27,456.45l17.28-2.2a2.82,2.82,0,0,1,3,3.9l-6.73,16.06a2.83,2.83,0,0,1-4.86.62L222.37,461A2.83,2.83,0,0,1,224.27,456.45Z" transform="translate(-72.29 -54.49)"/><path class="cls-4" d="M285.47,449.83,273.36,432a3.51,3.51,0,0,1,2.64-5.46L297.48,425a3.5,3.5,0,0,1,3.41,5l-9.38,19.39A3.49,3.49,0,0,1,285.47,449.83Z" transform="translate(-72.29 -54.49)"/><path class="cls-4" d="M257.8,462.2l2.39-12.87a2.12,2.12,0,0,1,3.47-1.23l9.95,8.5a2.12,2.12,0,0,1-.67,3.62l-12.34,4.37A2.13,2.13,0,0,1,257.8,462.2Z" transform="translate(-72.29 -54.49)"/><path class="cls-4" d="M246.21,420.32l11.88,12.74a2.83,2.83,0,0,1-1.43,4.69l-17,3.92a2.83,2.83,0,0,1-3.34-3.59l5.09-16.66A2.83,2.83,0,0,1,246.21,420.32Z" transform="translate(-72.29 -54.49)"/><path class="cls-2" d="M233.27,464.35l-.58-.79c.1-.07,9.91-7.26,24.61-20.15,14.35-12.58,11.55-26.12,8.58-40.46-.27-1.31-.54-2.62-.8-3.94l1-.19c.26,1.32.53,2.63.8,3.93,3,14.63,5.89,28.44-8.89,41.39S233.36,464.28,233.27,464.35Z" transform="translate(-72.29 -54.49)"/><rect class="cls-2" x="261.55" y="441.31" width="0.98" height="16.25" transform="translate(-181.9 30.89) rotate(-15.35)"/><rect class="cls-2" x="275.15" y="421.75" width="0.98" height="16.25" transform="translate(-304.38 429.97) rotate(-63.47)"/><rect class="cls-2" x="255.39" y="426.69" width="0.98" height="16.25" transform="translate(-300.89 521.13) rotate(-75.73)"/><polygon class="cls-3" points="374.81 431.77 420.89 431.77 412.86 490.86 382.84 490.86 374.81 431.77"/><path class="cls-5" d="M216.07,371.72l22.46,99.61L220.68,535H205.93l7.89-63.89s-12-30.52-18-46.62l-10.12,2.25,3.37,46.62L177.27,535H162.52L164.39,474s-15.94-76.85-15.73-86.5C148.27,385.87,216.07,371.72,216.07,371.72Z" transform="translate(-72.29 -54.49)"/><path class="cls-2" d="M221.68,386.33,152,399.81,106.17,349a12.16,12.16,0,0,1-.8-17.9l30-30.21a12.18,12.18,0,0,1,17.91.7Z" transform="translate(-72.29 -54.49)"/><path class="cls-6" d="M126.26,317l-5.86,5.89c-1.82,1.83-5,1.65-7-.4l-7.26-7.22c-2.06-2.05-2.26-5.2-.44-7l5.86-5.89c1.82-1.83,5-1.65,7,.4l7.26,7.22A5,5,0,0,1,126.26,317Z" transform="translate(-72.29 -54.49)"/><path class="cls-2" d="M102.26,336.25c-1.79,4.47,1.77,62.27,5.07,66.46,6.55,8.35,59,11.92,59,11.92V401.82l-38.75-13.71-5.66-48S105,329.49,102.26,336.25Z" transform="translate(-72.29 -54.49)"/><path class="cls-7" d="M121.49,292.35c5.66,10.33-2.23,15.81-12.56,21.47A21.33,21.33,0,1,1,88.45,276.4C98.78,270.75,115.83,282,121.49,292.35Z" transform="translate(-72.29 -54.49)"/><path class="cls-8" d="M84.26,297.42s24.44-19.24,28.34-28.5c3.67-8.72,1.42-15.41-8.19-15.52-12.34-.14-18.92,12.88-21.53,27.52C82,285.76,84.26,297.42,84.26,297.42Z" transform="translate(-72.29 -54.49)"/><g class="cls-9"><path class="cls-8" d="M87.81,292s5.34,5.31,4.61,6.05-4.58,2.4-4,7,5.34,5,8.27,3.1,7.55,6,.77,10.65S75.2,312,73,304s1.4-23.15,5.07-26.09,13.23,3.26,13.23,3.26Z" transform="translate(-72.29 -54.49)"/></g><path class="cls-8" d="M130,289.21a14.93,14.93,0,1,1-21.12.06A14.93,14.93,0,0,1,130,289.21Z" transform="translate(-72.29 -54.49)"/><rect class="cls-7" x="109.2" y="292.41" width="10.91" height="5.66" rx="2.32" transform="translate(-247.84 113.88) rotate(-45.16)"/><polygon class="cls-10" points="174.35 486.8 168.95 484.44 228.29 349.42 233.69 351.78 174.35 486.8"/><path class="cls-3" d="M249,539.77a5.42,5.42,0,1,1-5.51-5.31A5.42,5.42,0,0,1,249,539.77Z" transform="translate(-72.29 -54.49)"/><polygon class="cls-10" points="301.94 486.8 307.33 484.44 247.51 348.31 242.11 350.67 301.94 486.8"/><path class="cls-3" d="M371.82,539.77a5.42,5.42,0,1,0,5.52-5.31A5.43,5.43,0,0,0,371.82,539.77Z" transform="translate(-72.29 -54.49)"/><path class="cls-2" d="M294.93,202.5c1-11,9.92-14.1,13.57-18.79s4.52-18.62,8.87-26.28c4.66-8.19,12.18-20.52,32.71-18.26,16.54,1.82,21.05,14.79,21.58,24.7s9.39,19.31,15.65,22.45,9.4,14.61,8.88,19.83S294.93,202.5,294.93,202.5Z" transform="translate(-72.29 -54.49)"/><path class="cls-5" d="M319.55,266.17H375l-7.63-28.3,14.55-45.31c.62-6-5.18-11.16-12.57-11.16H325.2c-7.39,0-13.19,5.15-12.57,11.16l15.73,45.31Z" transform="translate(-72.29 -54.49)"/><path class="cls-5" d="M319.53,203.55c-4.5-.5-11.17-8.66-21-26S287.87,156.9,288,154.4s7.16-37.48,7.16-37.48h10.66l-3.16,38s13.11,21.5,21.46,26.72C328.79,184.51,319.53,203.55,319.53,203.55Z" transform="translate(-72.29 -54.49)"/><path class="cls-5" d="M374.49,203.55c4.5-.5,11.16-8.66,21-26S406.15,156.9,406,154.4s-7.16-37.48-7.16-37.48H388.15l3.17,38s-13.14,20.72-20.19,26.89C367,185.42,374.49,203.55,374.49,203.55Z" transform="translate(-72.29 -54.49)"/><g class="cls-11"><circle class="cls-6" cx="274.75" cy="117.82" r="22.24"/></g><rect class="cls-12" x="67.39" y="145.35" width="341.52" height="211.2" rx="21.34"/><rect class="cls-3" x="86.48" y="163.29" width="45.01" height="45.01" rx="7.7"/><rect class="cls-3" x="151.62" y="163.29" width="45.01" height="45.01" rx="7.7"/><rect class="cls-3" x="216.76" y="163.29" width="45.01" height="45.01" rx="7.7"/><rect class="cls-3" x="281.9" y="163.29" width="45.01" height="45.01" rx="7.7"/><rect class="cls-3" x="347.05" y="163.29" width="45.01" height="45.01" rx="7.7"/><rect class="cls-3" x="86.48" y="227.32" width="45.01" height="45.01" rx="7.7"/><rect class="cls-3" x="151.62" y="227.32" width="45.01" height="45.01" rx="7.7"/><rect class="cls-3" x="216.76" y="227.32" width="45.01" height="45.01" rx="7.7"/><rect class="cls-3" x="347.05" y="227.32" width="45.01" height="45.01" rx="7.7"/><rect class="cls-3" x="86.48" y="291.35" width="45.01" height="45.01" rx="7.7"/><rect class="cls-3" x="151.62" y="291.35" width="45.01" height="45.01" rx="7.7"/><rect class="cls-3" x="216.76" y="291.35" width="45.01" height="45.01" rx="7.7"/><rect class="cls-3" x="281.9" y="291.35" width="45.01" height="45.01" rx="7.7"/><rect class="cls-3" x="347.05" y="291.35" width="45.01" height="45.01" rx="7.7"/><path class="cls-4" d="M220.68,534.85H205.83v9.76h25.81c1.7,0,2.29-3.82.8-4.65Z" transform="translate(-72.29 -54.49)"/><path class="cls-4" d="M177.27,534.85H162.39v9.76H188.2c1.71,0,2.29-3.82.8-4.65Z" transform="translate(-72.29 -54.49)"/><path class="cls-13" d="M405.28,313.94c3.37,1.12,12,7.93,16,15.51,2.94,5.68,18.13,36.17,17.38,41s-46.06,34.46-46.06,34.46l-6.74-15s31.46-21,30.33-24-17-34.71-17-34.71Z" transform="translate(-72.29 -54.49)"/><path class="cls-7" d="M376.81,419.19H349.69l1.46,117.24h10.48s7.94-59,10.93-91.58h3.8C376.86,436.29,376.87,427.78,376.81,419.19Z" transform="translate(-72.29 -54.49)"/><path class="cls-7" d="M382.22,416.26l-25,12.13c3.81,7.71,7.52,15.37,10.82,23.28l3.11-1.51,42,81.4,9.42-4.58s-29.08-88.11-37.13-103.9A68.65,68.65,0,0,0,382.22,416.26Z" transform="translate(-72.29 -54.49)"/><path class="cls-13" d="M396.94,381.62H358.18l-9.93-62.45c-.53-5.09,4.4-9.46,10.66-9.46h40.36c6.26,0,11.18,4.37,10.66,9.46Z" transform="translate(-72.29 -54.49)"/><path class="cls-2" d="M350.25,536.26h11.86v9.09H338.06c-1.59,0-2.13-3.56-.74-4.33Z" transform="translate(-72.29 -54.49)"/><path class="cls-2" d="M412.13,531.89l10.66-5.18,4,8.18L405.14,545.4c-1.42.7-3.47-2.27-2.56-3.57Z" transform="translate(-72.29 -54.49)"/><path class="cls-4" d="M358.18,381.62h38.76s10.11,11.82,17.22,47c6.08,30.1,12.36,75.64,12.36,75.64H334.31s6.62-67,11.79-88.75C351.44,393.07,358.18,381.62,358.18,381.62Z" transform="translate(-72.29 -54.49)"/><g class="cls-14"><rect class="cls-15" x="268.66" y="315.92" width="78.64" height="4.49"/><rect class="cls-15" x="268.66" y="304.95" width="78.64" height="4.49"/><rect class="cls-15" x="268.66" y="293.98" width="78.64" height="4.49"/><rect class="cls-15" x="268.66" y="283" width="78.64" height="4.49"/><rect class="cls-15" x="268.66" y="272.03" width="78.64" height="4.49"/><rect class="cls-15" x="268.66" y="261.06" width="78.64" height="4.49"/></g><path class="cls-6" d="M374.56,314h7.07a4.25,4.25,0,0,0,4-4.48v-8.71a4.25,4.25,0,0,0-4-4.48h-7.07a4.25,4.25,0,0,0-4,4.48v8.71A4.25,4.25,0,0,0,374.56,314Z" transform="translate(-72.29 -54.49)"/><path class="cls-16" d="M362.54,296.28c2.84,9.61,10.87,8.13,20.48,5.29a18.13,18.13,0,0,0-10.28-34.78C363.13,269.62,359.7,286.67,362.54,296.28Z" transform="translate(-72.29 -54.49)"/><path class="cls-5" d="M373.34,264.25c-11.09,4.26-11.93,10-12.49,13.53-.5,3.16,1.68,1.12,6.88,1.82,3.06.42,6,.42,6.32,2.39.63,4.46,0,41.05,2.29,41.05s34.59,2,35.34-1-5.34-45.22-17.41-53.64C384.46,261.53,378.2,262.38,373.34,264.25Z" transform="translate(-72.29 -54.49)"/><path class="cls-13" d="M361.36,309.93s-30.21-1.28-34.08-2.24-29.47-38.07-29.47-38.07l-8.05,4.19s23.2,43.5,28,45.43S351.25,332,351.25,332s5.24,0,8.61-8.62C363.41,314.35,361.36,309.93,361.36,309.93Z" transform="translate(-72.29 -54.49)"/><g class="cls-17"><rect class="cls-4" x="308.98" y="177.08" width="5.14" height="126.4" transform="translate(-150.94 236.2) rotate(-45)"/><rect class="cls-4" x="248.36" y="237.71" width="126.4" height="5.14" transform="translate(-150.94 236.16) rotate(-45)"/></g><g class="cls-18"><rect class="cls-4" x="178.7" y="241.12" width="5.14" height="126.4" transform="translate(-234.38 162.83) rotate(-45)"/><rect class="cls-4" x="118.07" y="301.74" width="126.4" height="5.14" transform="translate(-234.38 162.83) rotate(-45)"/></g><g class="cls-19"><rect class="cls-4" x="243.84" y="305.15" width="5.14" height="126.4" transform="translate(-260.58 227.64) rotate(-45)"/><rect class="cls-4" x="183.21" y="365.78" width="126.4" height="5.14" transform="translate(-260.58 227.63) rotate(-45)"/></g><rect class="cls-6" x="265.79" y="111.12" width="16.7" height="20.88"/><path class="cls-7" d="M352.34,172.22c-7,5.89-11.87.63-17.75-6.39a16.57,16.57,0,0,1,25.4-21.3C365.88,151.54,359.36,166.34,352.34,172.22Z" transform="translate(-72.29 -54.49)"/><path class="cls-2" d="M343.66,141.69c-3.62,0-10.55-10.85-4.22-16.88,6-5.67,15.62-.47,16,5.73C356,141.09,351.49,141.69,343.66,141.69Z" transform="translate(-72.29 -54.49)"/><g class="cls-20"><path class="cls-2" d="M325.9,159.35c2.44,0,10.09-1.87,11.83-7.09s2.22-6,7.57-6c6.93,0,8.9.07,9.92,3.78,1.56,5.74,9.65,14.22,14.87,13.18s3.13-17.79-5.22-21.62-31.32-10.09-35.14-3.48-5.22,21.23-5.22,21.23Z" transform="translate(-72.29 -54.49)"/></g><rect class="cls-13" x="288.46" y="250.63" width="18.26" height="6.77" transform="translate(-164.75 230.33) rotate(-45)"/><path class="cls-7" d="M297.81,269.62s2.32-11.36-.48-11.93c-1.85-.36-2.44,4.69-5.06,3.75-1.11-.4,1.69-10.67-.37-10.86s-6.37,9.92-6,12.73,3.85,10.5,3.85,10.5Z" transform="translate(-72.29 -54.49)"/><polygon class="cls-12" points="229.36 190.67 234.15 195.46 236.09 190.47 234.8 189.04 229.36 190.67"/><path class="cls-2" d="M307.09,243.53l1.28,1.43s1.83-1.73,1.13-2.43C308.65,241.69,307.09,243.53,307.09,243.53Z" transform="translate(-72.29 -54.49)"/><g class="cls-21"><path class="cls-2" d="M344,400h20.27s1.78,26.43-14.31,31.59c-12.56,4-15.5-3-15.5-3Z" transform="translate(-72.29 -54.49)"/></g><path class="cls-7" d="M166.34,414.63s18.77-1.49,20.56-4.17-3.28-6.85-10.13-6.26S166,410.46,166,410.46Z" transform="translate(-72.29 -54.49)"/><path class="cls-7" d="M295.2,116.92h10.66s3.54-16,1.6-16.87c-1.16-.53-2.83,5.07-3.58,6.41s-6.55-.59-8,1.49S295.2,116.92,295.2,116.92Z" transform="translate(-72.29 -54.49)"/><path class="cls-7" d="M398.9,116.92H388.23s-3.53-16-1.59-16.87c1.15-.53,2.83,5.07,3.57,6.41s6.56-.59,8.05,1.49S398.9,116.92,398.9,116.92Z" transform="translate(-72.29 -54.49)"/><g class="cls-22"><rect class="cls-12" x="363.48" y="436.74" width="85.83" height="4.77"/></g><path class="cls-3" d="M351.72,70.65c0,4.2-5.11,15.06-5.11,15.06s-6.22-10.86-6.22-15.06,6.22-16.16,6.22-16.16S351.72,66.46,351.72,70.65Z" transform="translate(-72.29 -54.49)"/><path class="cls-3" d="M296.17,81c2.41,3.44,4.46,15.26,4.46,15.26S289.3,91,286.9,87.51s-4.19-16.8-4.19-16.8S293.76,77.58,296.17,81Z" transform="translate(-72.29 -54.49)"/><path class="cls-3" d="M262.9,120.26c3.91,1.53,12.14,10.26,12.14,10.26s-12.38,1.81-16.28.28S246,119.1,246,119.1,259,118.72,262.9,120.26Z" transform="translate(-72.29 -54.49)"/><path class="cls-3" d="M395.5,81C393.09,84.45,391,96.27,391,96.27s11.33-5.32,13.73-8.76S409,70.71,409,70.71,397.91,77.58,395.5,81Z" transform="translate(-72.29 -54.49)"/><path class="cls-3" d="M428.77,120.26c-3.91,1.53-12.14,10.26-12.14,10.26s12.38,1.81,16.28.28,12.77-11.7,12.77-11.7S432.67,118.72,428.77,120.26Z" transform="translate(-72.29 -54.49)"/></svg>