<svg id="Layer_1" data-name="Layer 1" xmlns="http://www.w3.org/2000/svg" xmlns:xlink="http://www.w3.org/1999/xlink" viewBox="0 0 404.98 572.29"><defs><style>.cls-1{fill:#fac0c1;}.cls-2{fill:none;}.cls-3{fill:#ccc;}.cls-4{fill:#231f20;}.cls-5{fill:#fff;}.cls-6{clip-path:url(#clip-path);}.cls-7{fill:#8fa8d7;}.cls-8{clip-path:url(#clip-path-2);}.cls-9{fill:#4a5eaa;}.cls-10{fill:#263b97;}.cls-11{fill:#f9ad98;}.cls-12{clip-path:url(#clip-path-3);}.cls-13{fill:#a6b8df;}.cls-14{fill:#f6948f;}.cls-15{fill:#f69184;}.cls-16{clip-path:url(#clip-path-4);}.cls-17{fill:#0d133d;}</style><clipPath id="clip-path" transform="translate(-99.63 -13.52)"><polygon class="cls-1" points="434.01 479.39 433.89 479.39 394.57 479.39 411.89 583.27 431 583.27 436.9 583.27 456.01 583.27 473.33 479.39 434.01 479.39"/></clipPath><clipPath id="clip-path-2" transform="translate(-99.63 -13.52)"><path class="cls-1" d="M142.61,485.78h60.56c3.23,0,5.85,3.5,5.85,7.82v12.23c0,4.32-2.62,7.82-5.85,7.82H142.61c-3.23,0-5.85-3.5-5.85-7.82V493.6C136.76,489.28,139.38,485.78,142.61,485.78Z"/></clipPath><clipPath id="clip-path-3" transform="translate(-99.63 -13.52)"><path class="cls-2" d="M477.34,223.72,416.4,258.54s-58.47-11.14-77.88-9.65H261.6c-19.41-1.49-77.88,9.65-77.88,9.65l-60.93-34.82-8.3,17.8s53,38.88,57,41.1,10.25,3.42,46.81.49c9-.72,17.12-1.32,24.33-1.92,6.13,17.73,16.87,50.93,17.24,66.57.32,13.48-8.67,37.82-8.67,37.82h102s-9-17.22-8.77-30.86c.26-16,11.47-53.69,17.6-73.16l19.75,1.55c36.56,2.93,42.77,1.73,46.81-.49s57-41.1,57-41.1Z"/></clipPath><clipPath id="clip-path-4" transform="translate(-99.63 -13.52)"><path class="cls-2" d="M291.2,238.3c13.25,10.6,23,.77,33.58-12.48s11.79-33.69-1.46-44.29-35.92-7.33-46.52,5.92S278,227.7,291.2,238.3Z"/></clipPath></defs><title>main_svg</title><path class="cls-3" d="M186.34,513c3.4-.68,12.58-7.82,20.06-27.55,4.28-11.27,16.32-69.37,0-73.45s-13.26,25.16-13.26,52C193.14,480.43,186.34,513,186.34,513Z" transform="translate(-99.63 -13.52)"/><path class="cls-3" d="M178.85,515.74c8.59-.57,6.81-87.4,7.49-107.81s4.76-96.58-6.81-108.82-23.46-1.36-24.48,14.45c-.48,7.5,2,62.07,3.4,77.71s3.06,51,4.42,73.46S168.65,516.42,178.85,515.74Z" transform="translate(-99.63 -13.52)"/><path class="cls-3" d="M161.93,531.8s-19.06-37.6-23.8-66.66c-8.51-52-10.21-102.7,1.36-102s12.39,51.7,12.92,73.45C153.77,493,167,528.4,167,528.4Z" transform="translate(-99.63 -13.52)"/><path class="cls-4" d="M177.06,510h-1.17c0-11.58-2-45.54-2-45.88L175,464C175,464.35,177.06,498.34,177.06,510Z" transform="translate(-99.63 -13.52)"/><path class="cls-4" d="M189.76,512.73l-1.07-.44a302,302,0,0,0,11.2-33.08,108.08,108.08,0,0,0,3-30.43l1.16-.08A109.42,109.42,0,0,1,201,479.5,297.58,297.58,0,0,1,189.76,512.73Z" transform="translate(-99.63 -13.52)"/><path class="cls-5" d="M171.37,464.73a2.55,2.55,0,1,0,2.55-2.55A2.55,2.55,0,0,0,171.37,464.73Z" transform="translate(-99.63 -13.52)"/><path class="cls-5" d="M201,449.08a2.55,2.55,0,1,0,2.55-2.55A2.55,2.55,0,0,0,201,449.08Z" transform="translate(-99.63 -13.52)"/><circle class="cls-5" cx="43.86" cy="412.78" r="2.55"/><path class="cls-3" d="M415.26,409.25c-.26,29.83-11.41,107-11.41,107S391.78,438.88,392,409s13.75-114.81,13.75-114.81S415.52,379.41,415.26,409.25Z" transform="translate(-99.63 -13.52)"/><rect class="cls-4" x="303.56" y="367.49" width="1.23" height="112.94"/><path class="cls-5" d="M406.49,382.09a2.69,2.69,0,1,1-2.69-2.69A2.69,2.69,0,0,1,406.49,382.09Z" transform="translate(-99.63 -13.52)"/><path class="cls-3" d="M446.62,409.25c-.26,29.83-11.42,107-11.42,107S423.13,438.88,423.39,409s13.75-114.81,13.75-114.81S446.88,379.41,446.62,409.25Z" transform="translate(-99.63 -13.52)"/><rect class="cls-4" x="334.91" y="367.49" width="1.23" height="112.94"/><path class="cls-5" d="M437.85,382.09a2.69,2.69,0,1,1-2.69-2.69A2.7,2.7,0,0,1,437.85,382.09Z" transform="translate(-99.63 -13.52)"/><path class="cls-3" d="M478,409.25c-.26,29.83-11.41,107-11.41,107S454.48,438.88,454.74,409s13.75-114.81,13.75-114.81S478.23,379.41,478,409.25Z" transform="translate(-99.63 -13.52)"/><rect class="cls-4" x="366.26" y="367.49" width="1.23" height="112.94"/><path class="cls-5" d="M469.2,382.09a2.69,2.69,0,1,1-2.69-2.69A2.69,2.69,0,0,1,469.2,382.09Z" transform="translate(-99.63 -13.52)"/><polygon class="cls-1" points="334.38 465.87 334.26 465.87 294.94 465.87 312.26 569.75 331.37 569.75 337.27 569.75 356.38 569.75 373.7 465.87 334.38 465.87"/><g class="cls-6"><rect class="cls-7" x="284.3" y="477.22" width="106.77" height="1.23"/></g><circle class="cls-1" cx="73.26" cy="523.88" r="47.49"/><path class="cls-3" d="M142.61,485.78h60.56c3.23,0,5.85,3.5,5.85,7.82v12.23c0,4.32-2.62,7.82-5.85,7.82H142.61c-3.23,0-5.85-3.5-5.85-7.82V493.6C136.76,489.28,139.38,485.78,142.61,485.78Z" transform="translate(-99.63 -13.52)"/><path class="cls-1" d="M142.61,485.78h60.56c3.23,0,5.85,3.5,5.85,7.82v12.23c0,4.32-2.62,7.82-5.85,7.82H142.61c-3.23,0-5.85-3.5-5.85-7.82V493.6C136.76,489.28,139.38,485.78,142.61,485.78Z" transform="translate(-99.63 -13.52)"/><g class="cls-8"><rect class="cls-9" x="24.79" y="489.44" width="88.68" height="1.16"/></g><path class="cls-10" d="M353.24,385.58h-102s9-24.34,8.67-37.82c-.52-21.9-21.41-78.32-21.41-78.32-1.14-11.06,9.55-20.55,23.14-20.55h81.25c13.59,0,24.27,9.49,23.13,20.55,0,0-21.15,63.21-21.51,85.28C344.25,368.36,353.24,385.58,353.24,385.58Z" transform="translate(-99.63 -13.52)"/><path class="cls-11" d="M114.49,241.52l8.3-17.8s-15.63-6-21.55,2.68C93.81,237.34,114.49,241.52,114.49,241.52Z" transform="translate(-99.63 -13.52)"/><path class="cls-10" d="M281.52,272.11c-4.34,7.12-26.66,8.07-63.22,11s-42.77,1.73-46.81-.49-57-41.1-57-41.1l8.3-17.8,60.93,34.82s58.47-11.14,77.88-9.65C268.33,249.41,281.52,272.11,281.52,272.11Z" transform="translate(-99.63 -13.52)"/><path class="cls-11" d="M485.63,241.52l-8.29-17.8s15.62-6,21.54,2.68C506.31,237.34,485.63,241.52,485.63,241.52Z" transform="translate(-99.63 -13.52)"/><path class="cls-10" d="M318.61,272.11c4.33,7.12,26.65,8.07,63.21,11s42.77,1.73,46.81-.49,57-41.1,57-41.1l-8.29-17.8L416.4,258.54s-58.47-11.14-77.88-9.65C331.79,249.41,318.61,272.11,318.61,272.11Z" transform="translate(-99.63 -13.52)"/><path class="cls-9" d="M251.2,385.58h102s27.15,51.94,1.68,59.22c-27.87,8-73.16,7.47-100,1C223.44,438.23,251.2,385.58,251.2,385.58Z" transform="translate(-99.63 -13.52)"/><g class="cls-12"><rect class="cls-9" x="127.4" y="182.73" width="6.08" height="40.74" transform="translate(-205.04 138.2) rotate(-45)"/><rect class="cls-9" x="109.93" y="224.68" width="40.74" height="6.08" transform="translate(-222.48 145.31) rotate(-45)"/><rect class="cls-9" x="127.4" y="232.05" width="6.08" height="40.74" transform="translate(-239.92 152.64) rotate(-45)"/><rect class="cls-9" x="109.93" y="274" width="40.74" height="6.08" transform="translate(-257.36 159.76) rotate(-45)"/><rect class="cls-9" x="127.4" y="281.46" width="6.08" height="40.74" transform="translate(-274.85 167.12) rotate(-45)"/><rect class="cls-9" x="109.93" y="323.41" width="40.74" height="6.08" transform="translate(-292.3 174.23) rotate(-45)"/><rect class="cls-9" x="127.4" y="330.78" width="6.08" height="40.74" transform="translate(-309.73 181.56) rotate(-45)"/><rect class="cls-9" x="109.93" y="372.73" width="40.74" height="6.08" transform="translate(-327.17 188.67) rotate(-45)"/><rect class="cls-9" x="148.39" y="182.73" width="6.08" height="40.74" transform="translate(-198.89 153.04) rotate(-45)"/><rect class="cls-9" x="130.92" y="224.68" width="40.74" height="6.08" transform="translate(-216.34 160.16) rotate(-45)"/><rect class="cls-9" x="148.39" y="232.05" width="6.08" height="40.74" transform="translate(-233.77 167.49) rotate(-45)"/><rect class="cls-9" x="130.92" y="274" width="40.74" height="6.08" transform="translate(-251.21 174.6) rotate(-45)"/><rect class="cls-9" x="148.39" y="281.46" width="6.08" height="40.74" transform="translate(-268.71 181.96) rotate(-45)"/><rect class="cls-9" x="130.92" y="323.41" width="40.74" height="6.08" transform="translate(-286.15 189.07) rotate(-45)"/><rect class="cls-9" x="148.39" y="330.78" width="6.08" height="40.74" transform="translate(-303.58 196.4) rotate(-45)"/><rect class="cls-9" x="130.92" y="372.73" width="40.74" height="6.08" transform="translate(-321.03 203.52) rotate(-45)"/><rect class="cls-9" x="169.38" y="182.73" width="6.08" height="40.74" transform="translate(-192.74 167.88) rotate(-45)"/><rect class="cls-9" x="151.91" y="224.68" width="40.74" height="6.08" transform="translate(-210.19 175) rotate(-45)"/><rect class="cls-9" x="169.38" y="232.05" width="6.08" height="40.74" transform="translate(-227.62 182.33) rotate(-45)"/><rect class="cls-9" x="151.91" y="274" width="40.74" height="6.08" transform="translate(-245.07 189.44) rotate(-45)"/><rect class="cls-9" x="169.38" y="281.46" width="6.08" height="40.74" transform="translate(-262.56 196.8) rotate(-45)"/><rect class="cls-9" x="151.91" y="323.41" width="40.74" height="6.08" transform="translate(-280 203.92) rotate(-45)"/><rect class="cls-9" x="169.38" y="330.78" width="6.08" height="40.74" transform="translate(-297.43 211.25) rotate(-45)"/><rect class="cls-9" x="151.91" y="372.73" width="40.74" height="6.08" transform="translate(-314.88 218.36) rotate(-45)"/><rect class="cls-9" x="190.37" y="182.73" width="6.08" height="40.74" transform="translate(-186.6 182.72) rotate(-45)"/><rect class="cls-9" x="172.9" y="224.68" width="40.74" height="6.08" transform="translate(-204.04 189.84) rotate(-45)"/><rect class="cls-9" x="190.37" y="232.05" width="6.08" height="40.74" transform="translate(-221.47 197.17) rotate(-45)"/><rect class="cls-9" x="172.9" y="274" width="40.74" height="6.08" transform="translate(-238.92 204.28) rotate(-45)"/><rect class="cls-9" x="190.37" y="281.46" width="6.08" height="40.74" transform="translate(-256.41 211.64) rotate(-45)"/><rect class="cls-9" x="172.9" y="323.41" width="40.74" height="6.08" transform="translate(-273.86 218.76) rotate(-45)"/><rect class="cls-9" x="190.37" y="330.78" width="6.08" height="40.74" transform="translate(-291.29 226.09) rotate(-45)"/><rect class="cls-9" x="172.9" y="372.73" width="40.74" height="6.08" transform="translate(-308.73 233.2) rotate(-45)"/><rect class="cls-9" x="211.36" y="182.73" width="6.08" height="40.74" transform="translate(-180.45 197.56) rotate(-45)"/><rect class="cls-9" x="193.89" y="224.68" width="40.74" height="6.08" transform="translate(-197.89 204.68) rotate(-45)"/><rect class="cls-9" x="211.36" y="232.05" width="6.08" height="40.74" transform="translate(-215.32 212.01) rotate(-45)"/><rect class="cls-9" x="193.89" y="274" width="40.74" height="6.08" transform="translate(-232.77 219.13) rotate(-45)"/><rect class="cls-9" x="211.36" y="281.46" width="6.08" height="40.74" transform="translate(-250.26 226.48) rotate(-45)"/><rect class="cls-9" x="193.89" y="323.41" width="40.74" height="6.08" transform="translate(-267.71 233.6) rotate(-45)"/><rect class="cls-9" x="211.36" y="330.78" width="6.08" height="40.74" transform="translate(-285.14 240.93) rotate(-45)"/><rect class="cls-9" x="193.89" y="372.73" width="40.74" height="6.08" transform="translate(-302.58 248.04) rotate(-45)"/><rect class="cls-9" x="232.35" y="182.73" width="6.08" height="40.74" transform="translate(-174.3 212.41) rotate(-45)"/><rect class="cls-9" x="214.88" y="224.68" width="40.74" height="6.08" transform="translate(-191.75 219.52) rotate(-45)"/><rect class="cls-9" x="232.35" y="232.05" width="6.08" height="40.74" transform="translate(-209.18 226.85) rotate(-45)"/><rect class="cls-9" x="214.88" y="274" width="40.74" height="6.08" transform="translate(-226.62 233.97) rotate(-45)"/><rect class="cls-9" x="232.35" y="281.46" width="6.08" height="40.74" transform="translate(-244.12 241.33) rotate(-45)"/><rect class="cls-9" x="214.88" y="323.41" width="40.74" height="6.08" transform="translate(-261.56 248.44) rotate(-45)"/><rect class="cls-9" x="232.35" y="330.78" width="6.08" height="40.74" transform="translate(-278.99 255.77) rotate(-45)"/><rect class="cls-9" x="214.88" y="372.73" width="40.74" height="6.08" transform="translate(-296.44 262.89) rotate(-45)"/><rect class="cls-9" x="253.34" y="182.73" width="6.08" height="40.74" transform="translate(-168.15 227.25) rotate(-45)"/><rect class="cls-9" x="235.87" y="224.68" width="40.74" height="6.08" transform="translate(-185.6 234.37) rotate(-45)"/><rect class="cls-9" x="253.34" y="232.05" width="6.08" height="40.74" transform="translate(-203.03 241.7) rotate(-45)"/><rect class="cls-9" x="235.87" y="274" width="40.74" height="6.08" transform="translate(-220.47 248.81) rotate(-45)"/><rect class="cls-9" x="253.34" y="281.46" width="6.08" height="40.74" transform="translate(-237.97 256.17) rotate(-45)"/><rect class="cls-9" x="235.87" y="323.41" width="40.74" height="6.08" transform="translate(-255.41 263.28) rotate(-45)"/><rect class="cls-9" x="253.34" y="330.78" width="6.08" height="40.74" transform="translate(-272.84 270.61) rotate(-45)"/><rect class="cls-9" x="235.87" y="372.73" width="40.74" height="6.08" transform="translate(-290.29 277.73) rotate(-45)"/><rect class="cls-9" x="274.33" y="182.73" width="6.08" height="40.74" transform="translate(-162 242.09) rotate(-45)"/><rect class="cls-9" x="256.86" y="224.68" width="40.74" height="6.08" transform="translate(-179.45 249.21) rotate(-45)"/><rect class="cls-9" x="274.33" y="232.05" width="6.08" height="40.74" transform="translate(-196.88 256.54) rotate(-45)"/><rect class="cls-9" x="256.86" y="274" width="40.74" height="6.08" transform="translate(-214.33 263.65) rotate(-45)"/><rect class="cls-9" x="274.33" y="281.46" width="6.08" height="40.74" transform="translate(-231.82 271.01) rotate(-45)"/><rect class="cls-9" x="256.86" y="323.41" width="40.74" height="6.08" transform="translate(-249.27 278.13) rotate(-45)"/><rect class="cls-9" x="274.33" y="330.78" width="6.08" height="40.74" transform="translate(-266.7 285.46) rotate(-45)"/><rect class="cls-9" x="256.86" y="372.73" width="40.74" height="6.08" transform="translate(-284.14 292.57) rotate(-45)"/><rect class="cls-9" x="295.32" y="182.73" width="6.08" height="40.74" transform="translate(-155.86 256.93) rotate(-45)"/><rect class="cls-9" x="277.85" y="224.68" width="40.74" height="6.08" transform="translate(-173.3 264.05) rotate(-45)"/><rect class="cls-9" x="295.32" y="232.05" width="6.08" height="40.74" transform="translate(-190.73 271.38) rotate(-45)"/><rect class="cls-9" x="277.85" y="274" width="40.74" height="6.08" transform="translate(-208.18 278.5) rotate(-45)"/><rect class="cls-9" x="295.32" y="281.46" width="6.08" height="40.74" transform="translate(-225.67 285.85) rotate(-45)"/><rect class="cls-9" x="277.85" y="323.41" width="40.74" height="6.08" transform="translate(-243.12 292.97) rotate(-45)"/><rect class="cls-9" x="295.32" y="330.78" width="6.08" height="40.74" transform="translate(-260.55 300.3) rotate(-45)"/><rect class="cls-9" x="277.85" y="372.73" width="40.74" height="6.08" transform="translate(-277.99 307.41) rotate(-45)"/><rect class="cls-9" x="317.1" y="182.73" width="6.08" height="40.74" transform="translate(-149.48 272.34) rotate(-45)"/><rect class="cls-9" x="299.63" y="224.68" width="40.74" height="6.08" transform="translate(-166.92 279.46) rotate(-45)"/><rect class="cls-9" x="317.1" y="232.05" width="6.08" height="40.74" transform="translate(-184.35 286.79) rotate(-45)"/><rect class="cls-9" x="299.63" y="274" width="40.74" height="6.08" transform="translate(-201.8 293.9) rotate(-45)"/><rect class="cls-9" x="317.1" y="281.46" width="6.08" height="40.74" transform="translate(-219.29 301.26) rotate(-45)"/><rect class="cls-9" x="299.63" y="323.41" width="40.74" height="6.08" transform="translate(-236.74 308.37) rotate(-45)"/><rect class="cls-9" x="317.1" y="330.78" width="6.08" height="40.74" transform="translate(-254.17 315.7) rotate(-45)"/><rect class="cls-9" x="299.63" y="372.73" width="40.74" height="6.08" transform="translate(-271.61 322.82) rotate(-45)"/><rect class="cls-9" x="338.09" y="182.73" width="6.08" height="40.74" transform="translate(-143.33 287.18) rotate(-45)"/><rect class="cls-9" x="320.62" y="224.68" width="40.74" height="6.08" transform="translate(-160.77 294.3) rotate(-45)"/><rect class="cls-9" x="338.09" y="232.05" width="6.08" height="40.74" transform="translate(-178.2 301.63) rotate(-45)"/><rect class="cls-9" x="320.62" y="274" width="40.74" height="6.08" transform="translate(-195.65 308.74) rotate(-45)"/><rect class="cls-9" x="338.09" y="281.46" width="6.08" height="40.74" transform="translate(-213.14 316.1) rotate(-45)"/><rect class="cls-9" x="320.62" y="323.41" width="40.74" height="6.08" transform="translate(-230.59 323.22) rotate(-45)"/><rect class="cls-9" x="338.09" y="330.78" width="6.08" height="40.74" transform="translate(-248.02 330.55) rotate(-45)"/><rect class="cls-9" x="320.62" y="372.73" width="40.74" height="6.08" transform="translate(-265.46 337.66) rotate(-45)"/><rect class="cls-9" x="359.08" y="182.73" width="6.08" height="40.74" transform="translate(-137.18 302.02) rotate(-45)"/><rect class="cls-9" x="341.61" y="224.68" width="40.74" height="6.08" transform="translate(-154.63 309.14) rotate(-45)"/><rect class="cls-9" x="359.08" y="232.05" width="6.08" height="40.74" transform="translate(-172.06 316.47) rotate(-45)"/><rect class="cls-9" x="341.61" y="274" width="40.74" height="6.08" transform="translate(-189.5 323.58) rotate(-45)"/><rect class="cls-9" x="359.08" y="281.46" width="6.08" height="40.74" transform="translate(-207 330.94) rotate(-45)"/><rect class="cls-9" x="341.61" y="323.41" width="40.74" height="6.08" transform="translate(-224.44 338.06) rotate(-45)"/><rect class="cls-9" x="359.08" y="330.78" width="6.08" height="40.74" transform="translate(-241.87 345.39) rotate(-45)"/><rect class="cls-9" x="341.61" y="372.73" width="40.74" height="6.08" transform="translate(-259.32 352.5) rotate(-45)"/><rect class="cls-9" x="380.07" y="182.73" width="6.08" height="40.74" transform="translate(-131.03 316.86) rotate(-45)"/><rect class="cls-9" x="362.6" y="224.68" width="40.74" height="6.08" transform="translate(-148.48 323.98) rotate(-45)"/><rect class="cls-9" x="380.07" y="232.05" width="6.08" height="40.74" transform="translate(-165.91 331.31) rotate(-45)"/><rect class="cls-9" x="362.6" y="274" width="40.74" height="6.08" transform="translate(-183.35 338.43) rotate(-45)"/><rect class="cls-9" x="380.07" y="281.46" width="6.08" height="40.74" transform="translate(-200.85 345.78) rotate(-45)"/><rect class="cls-9" x="362.6" y="323.41" width="40.74" height="6.08" transform="translate(-218.29 352.9) rotate(-45)"/><rect class="cls-9" x="380.07" y="330.78" width="6.08" height="40.74" transform="translate(-235.72 360.23) rotate(-45)"/><rect class="cls-9" x="362.6" y="372.73" width="40.74" height="6.08" transform="translate(-253.17 367.34) rotate(-45)"/><rect class="cls-9" x="401.06" y="182.73" width="6.08" height="40.74" transform="translate(-124.88 331.71) rotate(-45)"/><rect class="cls-9" x="383.59" y="224.68" width="40.74" height="6.08" transform="translate(-142.33 338.83) rotate(-45)"/><rect class="cls-9" x="401.06" y="232.05" width="6.08" height="40.74" transform="translate(-159.76 346.16) rotate(-45)"/><rect class="cls-9" x="383.59" y="274" width="40.74" height="6.08" transform="translate(-177.21 353.27) rotate(-45)"/><rect class="cls-9" x="401.06" y="281.46" width="6.08" height="40.74" transform="translate(-194.7 360.63) rotate(-45)"/><rect class="cls-9" x="383.59" y="323.41" width="40.74" height="6.08" transform="translate(-212.15 367.74) rotate(-45)"/><rect class="cls-9" x="401.06" y="330.78" width="6.08" height="40.74" transform="translate(-229.58 375.08) rotate(-45)"/><rect class="cls-9" x="383.59" y="372.73" width="40.74" height="6.08" transform="translate(-247.02 382.19) rotate(-45)"/><rect class="cls-9" x="422.05" y="182.73" width="6.08" height="40.74" transform="translate(-118.74 346.55) rotate(-45)"/><rect class="cls-9" x="404.58" y="224.68" width="40.74" height="6.08" transform="translate(-136.18 353.67) rotate(-45)"/><rect class="cls-9" x="422.05" y="232.05" width="6.08" height="40.74" transform="translate(-153.61 361) rotate(-45)"/><rect class="cls-9" x="404.58" y="274" width="40.74" height="6.08" transform="translate(-171.06 368.11) rotate(-45)"/><rect class="cls-9" x="422.05" y="281.46" width="6.08" height="40.74" transform="translate(-188.55 375.47) rotate(-45)"/><rect class="cls-9" x="404.58" y="323.41" width="40.74" height="6.08" transform="translate(-206 382.58) rotate(-45)"/><rect class="cls-9" x="422.05" y="330.78" width="6.08" height="40.74" transform="translate(-223.43 389.92) rotate(-45)"/><rect class="cls-9" x="404.58" y="372.73" width="40.74" height="6.08" transform="translate(-240.87 397.03) rotate(-45)"/><rect class="cls-9" x="443.04" y="182.73" width="6.08" height="40.74" transform="translate(-112.59 361.39) rotate(-45)"/><rect class="cls-9" x="425.57" y="224.68" width="40.74" height="6.08" transform="translate(-130.03 368.51) rotate(-45)"/><rect class="cls-9" x="443.04" y="232.05" width="6.08" height="40.74" transform="translate(-147.46 375.84) rotate(-45)"/><rect class="cls-9" x="425.57" y="274" width="40.74" height="6.08" transform="translate(-164.91 382.95) rotate(-45)"/><rect class="cls-9" x="443.04" y="281.46" width="6.08" height="40.74" transform="translate(-182.4 390.31) rotate(-45)"/><rect class="cls-9" x="425.57" y="323.41" width="40.74" height="6.08" transform="translate(-199.85 397.43) rotate(-45)"/><rect class="cls-9" x="443.04" y="330.78" width="6.08" height="40.74" transform="translate(-217.28 404.76) rotate(-45)"/><rect class="cls-9" x="425.57" y="372.73" width="40.74" height="6.08" transform="translate(-234.73 411.87) rotate(-45)"/><rect class="cls-9" x="464.03" y="182.73" width="6.08" height="40.74" transform="translate(-106.44 376.23) rotate(-45)"/><rect class="cls-9" x="446.56" y="224.68" width="40.74" height="6.08" transform="translate(-123.89 383.35) rotate(-45)"/><rect class="cls-9" x="464.03" y="232.05" width="6.08" height="40.74" transform="translate(-141.32 390.68) rotate(-45)"/><rect class="cls-9" x="446.56" y="274" width="40.74" height="6.08" transform="translate(-158.76 397.8) rotate(-45)"/><rect class="cls-9" x="464.03" y="281.46" width="6.08" height="40.74" transform="translate(-176.26 405.15) rotate(-45)"/><rect class="cls-9" x="446.56" y="323.41" width="40.74" height="6.08" transform="translate(-193.7 412.27) rotate(-45)"/><rect class="cls-9" x="464.03" y="330.78" width="6.08" height="40.74" transform="translate(-211.13 419.6) rotate(-45)"/><rect class="cls-9" x="446.56" y="372.73" width="40.74" height="6.08" transform="translate(-228.58 426.71) rotate(-45)"/><rect class="cls-9" x="485.02" y="182.73" width="6.08" height="40.74" transform="translate(-100.29 391.07) rotate(-45)"/><rect class="cls-9" x="467.55" y="224.68" width="40.74" height="6.08" transform="translate(-117.74 398.19) rotate(-45)"/><rect class="cls-9" x="485.02" y="232.05" width="6.08" height="40.74" transform="translate(-135.17 405.52) rotate(-45)"/><rect class="cls-9" x="467.55" y="274" width="40.74" height="6.08" transform="translate(-152.62 412.64) rotate(-45)"/><rect class="cls-9" x="485.02" y="281.46" width="6.08" height="40.74" transform="translate(-170.11 419.99) rotate(-45)"/><rect class="cls-9" x="467.55" y="323.41" width="40.74" height="6.08" transform="translate(-187.55 427.11) rotate(-45)"/><rect class="cls-9" x="485.02" y="330.78" width="6.08" height="40.74" transform="translate(-204.98 434.44) rotate(-45)"/><rect class="cls-9" x="467.55" y="372.73" width="40.74" height="6.08" transform="translate(-222.43 441.56) rotate(-45)"/></g><path class="cls-7" d="M176.26,388.32c-1.09-15.8,29.11-20.91,44.79-13.44s72.41,49.27,87.34,60.47,46.28,39.56,46.28,39.56l-19.41,25.38s-73.9-44.79-109-60.46S177.75,410,176.26,388.32Z" transform="translate(-99.63 -13.52)"/><path class="cls-13" d="M431.53,388.32c1.09-15.8-29.11-20.91-44.79-13.44s-72.41,49.27-87.34,60.47-46.28,39.56-46.28,39.56l19.41,25.38s73.9-44.79,109-60.46S430,410,431.53,388.32Z" transform="translate(-99.63 -13.52)"/><path class="cls-14" d="M253.12,474.91l19.41,25.38s-5.2,36.08-15.15,38.07S244.94,504.52,243,492.58,253.12,474.91,253.12,474.91Z" transform="translate(-99.63 -13.52)"/><path class="cls-14" d="M354.33,474.91l-19.41,25.38s5.2,36.08,15.15,38.07,12.44-33.84,14.43-45.78S354.33,474.91,354.33,474.91Z" transform="translate(-99.63 -13.52)"/><path class="cls-15" d="M301.73,263.25c18.08,0,18-12.29,18-15.24V228c0-4.53-6.76-4.15-10.78-4.15H296c-4,0-10.77,3.67-10.77,8.2V248C285.21,250.92,287.11,263.25,301.73,263.25Z" transform="translate(-99.63 -13.52)"/><path class="cls-11" d="M291.2,238.3c13.25,10.6,23,.77,33.58-12.48a30.72,30.72,0,1,0-48-38.37C266.2,200.7,278,227.7,291.2,238.3Z" transform="translate(-99.63 -13.52)"/><g class="cls-16"><path class="cls-17" d="M272.06,222.84s7.34-28.12,15.8-33.09,11.26,4.56,14.56,4.85c3.12.27,5.6-7.13,11.2-5.6,16.42,4.48,19.65,44.29,19.65,44.29s19.41-59.22-20.4-67.18-46.78,19.9-46.28,26.37S272.06,222.84,272.06,222.84Z" transform="translate(-99.63 -13.52)"/></g><path class="cls-17" d="M300.93,180.41c-4.86-2.61-16.05-19-8.59-28.36,5.62-7,22.17-5.58,23.52,5.22,1.49,11.95-5.6,23.52-8.22,25S300.93,180.41,300.93,180.41Z" transform="translate(-99.63 -13.52)"/><circle class="cls-10" cx="200.43" cy="43.58" r="43.58"/><circle class="cls-9" cx="200.43" cy="43.58" r="36.23"/><path class="cls-1" d="M301.4,25.57a1.34,1.34,0,1,1-1.34-1.34A1.34,1.34,0,0,1,301.4,25.57Z" transform="translate(-99.63 -13.52)"/><path class="cls-1" d="M285.45,29.13a1.33,1.33,0,1,1-1.82-.49A1.33,1.33,0,0,1,285.45,29.13Z" transform="translate(-99.63 -13.52)"/><path class="cls-1" d="M273.43,40.18a1.34,1.34,0,1,1-1.83.49A1.34,1.34,0,0,1,273.43,40.18Z" transform="translate(-99.63 -13.52)"/><path class="cls-1" d="M268.53,55.76a1.34,1.34,0,1,1-1.33,1.34A1.34,1.34,0,0,1,268.53,55.76Z" transform="translate(-99.63 -13.52)"/><path class="cls-1" d="M272.09,71.7a1.34,1.34,0,1,1-.49,1.83A1.34,1.34,0,0,1,272.09,71.7Z" transform="translate(-99.63 -13.52)"/><path class="cls-1" d="M283.14,83.73a1.34,1.34,0,1,1,2.31,1.34,1.33,1.33,0,0,1-1.82.49A1.34,1.34,0,0,1,283.14,83.73Z" transform="translate(-99.63 -13.52)"/><path class="cls-1" d="M298.72,88.62A1.34,1.34,0,1,1,300.06,90,1.34,1.34,0,0,1,298.72,88.62Z" transform="translate(-99.63 -13.52)"/><path class="cls-1" d="M314.67,85.07a1.34,1.34,0,1,1,1.82.49A1.34,1.34,0,0,1,314.67,85.07Z" transform="translate(-99.63 -13.52)"/><path class="cls-1" d="M326.7,74a1.34,1.34,0,0,1-.49-1.83A1.33,1.33,0,0,1,328,71.7,1.34,1.34,0,0,1,326.7,74Z" transform="translate(-99.63 -13.52)"/><path class="cls-1" d="M331.59,58.43a1.34,1.34,0,1,1,1.33-1.33A1.33,1.33,0,0,1,331.59,58.43Z" transform="translate(-99.63 -13.52)"/><path class="cls-1" d="M328,42.49a1.33,1.33,0,1,1,.49-1.82A1.33,1.33,0,0,1,328,42.49Z" transform="translate(-99.63 -13.52)"/><path class="cls-1" d="M317,30.46a1.33,1.33,0,1,1-.49-1.82A1.33,1.33,0,0,1,317,30.46Z" transform="translate(-99.63 -13.52)"/><rect class="cls-13" x="290.85" y="43.69" width="2.79" height="16.68" transform="translate(1.03 265.25) rotate(-59.9)"/><rect class="cls-13" x="298.96" y="49.37" width="25.08" height="2.06" transform="translate(-85.26 143.11) rotate(-28.86)"/><path class="cls-14" d="M306.41,57.1a6.35,6.35,0,1,1-6.35-6.35A6.35,6.35,0,0,1,306.41,57.1Z" transform="translate(-99.63 -13.52)"/><circle class="cls-1" cx="156.72" cy="148.36" r="43.58" transform="translate(-132.55 237.84) rotate(-71.94)"/><circle class="cls-14" cx="156.72" cy="148.36" r="36.23" transform="translate(-118.59 9.51) rotate(-7.93)"/><path class="cls-1" d="M128.15,135a1.34,1.34,0,1,1-1.75.72A1.35,1.35,0,0,1,128.15,135Z" transform="translate(-99.63 -13.52)"/><path class="cls-1" d="M125.28,151.06a1.33,1.33,0,0,1,1.5,1.15,1.34,1.34,0,1,1-2.65.34A1.33,1.33,0,0,1,125.28,151.06Z" transform="translate(-99.63 -13.52)"/><path class="cls-1" d="M130.84,166.41a1.34,1.34,0,1,1-.25,1.88A1.35,1.35,0,0,1,130.84,166.41Z" transform="translate(-99.63 -13.52)"/><path class="cls-1" d="M143.34,176.94a1.33,1.33,0,1,1,.71,1.74A1.32,1.32,0,0,1,143.34,176.94Z" transform="translate(-99.63 -13.52)"/><path class="cls-1" d="M159.42,179.8a1.32,1.32,0,0,1,1.15-1.49,1.34,1.34,0,1,1-1.15,1.49Z" transform="translate(-99.63 -13.52)"/><path class="cls-1" d="M174.78,174.24a1.33,1.33,0,1,1,1.87.25A1.33,1.33,0,0,1,174.78,174.24Z" transform="translate(-99.63 -13.52)"/><path class="cls-1" d="M185.3,161.75a1.34,1.34,0,1,1,1.75-.72A1.35,1.35,0,0,1,185.3,161.75Z" transform="translate(-99.63 -13.52)"/><path class="cls-1" d="M188.16,145.67a1.34,1.34,0,0,1-1.49-1.16,1.32,1.32,0,0,1,1.15-1.49,1.34,1.34,0,0,1,1.5,1.15A1.35,1.35,0,0,1,188.16,145.67Z" transform="translate(-99.63 -13.52)"/><path class="cls-1" d="M182.6,130.31a1.34,1.34,0,1,1,.26-1.87A1.34,1.34,0,0,1,182.6,130.31Z" transform="translate(-99.63 -13.52)"/><path class="cls-1" d="M170.11,119.79a1.34,1.34,0,1,1-.72-1.75A1.33,1.33,0,0,1,170.11,119.79Z" transform="translate(-99.63 -13.52)"/><path class="cls-1" d="M154,116.92a1.34,1.34,0,1,1-2.65.34,1.34,1.34,0,0,1,2.65-.34Z" transform="translate(-99.63 -13.52)"/><path class="cls-1" d="M138.67,122.48a1.33,1.33,0,1,1-1.87-.25A1.33,1.33,0,0,1,138.67,122.48Z" transform="translate(-99.63 -13.52)"/><rect class="cls-13" x="140.69" y="152.23" width="16.68" height="2.79" transform="translate(-162.2 107.92) rotate(-37.22)"/><rect class="cls-13" x="153.92" y="122.69" width="2.06" height="25.08" transform="matrix(0.99, -0.11, 0.11, 0.99, -113.32, 4)"/><path class="cls-1" d="M159.17,142.5a6.35,6.35,0,1,1-8.31,3.41A6.35,6.35,0,0,1,159.17,142.5Z" transform="translate(-99.63 -13.52)"/><circle class="cls-13" cx="443.4" cy="152.49" r="43.58" transform="translate(-114.32 38.93) rotate(-6.66)"/><path class="cls-10" d="M479.32,147.78a36.22,36.22,0,1,1-40.63-31.21A36.22,36.22,0,0,1,479.32,147.78Z" transform="translate(-99.63 -13.52)"/><path class="cls-1" d="M440.63,121.05a1.34,1.34,0,1,1-1.5-1.15A1.33,1.33,0,0,1,440.63,121.05Z" transform="translate(-99.63 -13.52)"/><path class="cls-1" d="M425.28,126.65a1.34,1.34,0,1,1-1.87-.24A1.35,1.35,0,0,1,425.28,126.65Z" transform="translate(-99.63 -13.52)"/><path class="cls-1" d="M414.8,139.18a1.33,1.33,0,1,1-1.75.72A1.33,1.33,0,0,1,414.8,139.18Z" transform="translate(-99.63 -13.52)"/><path class="cls-1" d="M412,155.26a1.35,1.35,0,0,1,1.5,1.15,1.34,1.34,0,1,1-1.5-1.15Z" transform="translate(-99.63 -13.52)"/><path class="cls-1" d="M417.57,170.61a1.34,1.34,0,1,1-.25,1.87A1.33,1.33,0,0,1,417.57,170.61Z" transform="translate(-99.63 -13.52)"/><path class="cls-1" d="M430.09,181.1a1.34,1.34,0,1,1,.72,1.74A1.34,1.34,0,0,1,430.09,181.1Z" transform="translate(-99.63 -13.52)"/><path class="cls-1" d="M446.18,183.92a1.34,1.34,0,1,1,1.5,1.15A1.34,1.34,0,0,1,446.18,183.92Z" transform="translate(-99.63 -13.52)"/><path class="cls-1" d="M461.52,178.32a1.34,1.34,0,1,1,1.88.25A1.34,1.34,0,0,1,461.52,178.32Z" transform="translate(-99.63 -13.52)"/><path class="cls-1" d="M472,165.8a1.34,1.34,0,1,1,1.75-.72A1.34,1.34,0,0,1,472,165.8Z" transform="translate(-99.63 -13.52)"/><path class="cls-1" d="M474.84,149.71a1.34,1.34,0,1,1-.35-2.65,1.34,1.34,0,0,1,.35,2.65Z" transform="translate(-99.63 -13.52)"/><path class="cls-1" d="M469.24,134.37a1.34,1.34,0,1,1,.24-1.88A1.34,1.34,0,0,1,469.24,134.37Z" transform="translate(-99.63 -13.52)"/><path class="cls-1" d="M456.72,123.88a1.35,1.35,0,0,1-1.75.72,1.34,1.34,0,1,1,1.75-.72Z" transform="translate(-99.63 -13.52)"/><rect class="cls-13" x="433.6" y="140.14" width="2.79" height="16.68" transform="translate(30.91 479.31) rotate(-67.37)"/><rect class="cls-13" x="441.34" y="143.33" width="25.08" height="2.06" transform="translate(-96.89 283.54) rotate(-36.34)"/><path class="cls-9" d="M449.7,151.66a6.35,6.35,0,1,1-7.12-5.47A6.34,6.34,0,0,1,449.7,151.66Z" transform="translate(-99.63 -13.52)"/><path class="cls-3" d="M367.25,573.87a11.94,11.94,0,0,1-11.95,11.94H244.82a11.94,11.94,0,0,1-11.95-11.94h0a11.94,11.94,0,0,1,11.95-11.94H355.3a11.94,11.94,0,0,1,11.95,11.94Z" transform="translate(-99.63 -13.52)"/></svg>