<svg id="Layer_1" data-name="Layer 1" xmlns="http://www.w3.org/2000/svg" xmlns:xlink="http://www.w3.org/1999/xlink" viewBox="0 0 600 600"><defs><style>.cls-1{fill:none;}.cls-2{fill:#fac0c1;}.cls-3{fill:#a6b8df;}.cls-4{fill:#fff;}.cls-5{fill:#263b97;}.cls-6{fill:#4a5eaa;}.cls-7{fill:#ccc;}.cls-8{fill:#f6948f;}.cls-9{fill:#0d133d;}.cls-10{clip-path:url(#clip-path);}.cls-11{fill:#f8b2b6;}.cls-12{clip-path:url(#clip-path-2);}.cls-13{fill:#4f6980;}.cls-14{fill:#b3c7e8;}.cls-15{fill:#e98896;}.cls-16{clip-path:url(#clip-path-4);}.cls-17{fill:#fde2e3;}</style><clipPath id="clip-path"><path class="cls-1" d="M194.12,357.39l48.2,10.87,2.94,35H326l6.42-76.14,30.81,2.46-27.88-52.74a18.35,18.35,0,0,0-17.58-13.1H253.49a18.36,18.36,0,0,0-16.64,10.57l-47.43,68.4C187.08,347.69,188.88,355.66,194.12,357.39ZM227.63,338l11.19-11.2,1.33,15.71Z"/></clipPath><clipPath id="clip-path-2"><path class="cls-1" d="M245.26,403.24H326l10.08-119.61a18.37,18.37,0,0,0-18.31-19.91H253.49a18.37,18.37,0,0,0-18.3,19.91Z"/></clipPath><clipPath id="clip-path-4"><polygon class="cls-2" points="492.48 310.79 437.41 310.79 447 381.39 482.88 381.39 492.48 310.79"/></clipPath></defs><title>main_login</title><rect class="cls-3" x="198" y="164.81" width="101.14" height="101.14" rx="17.3"/><rect class="cls-4" x="237.02" y="215.04" width="55.33" height="11.7" transform="translate(-78.67 251.86) rotate(-45)"/><rect class="cls-4" x="227.63" y="193.23" width="11.7" height="55.33" transform="translate(-87.81 229.78) rotate(-45)"/><rect class="cls-5" x="78.39" y="164.81" width="101.14" height="101.14" rx="17.3"/><rect class="cls-4" x="117.41" y="215.04" width="55.33" height="11.7" transform="translate(-113.7 167.29) rotate(-45)"/><rect class="cls-4" x="108.01" y="193.23" width="11.7" height="55.33" transform="translate(-122.84 145.2) rotate(-45)"/><rect class="cls-6" x="198" y="44.62" width="101.14" height="101.14" rx="17.3"/><rect class="cls-4" x="237.02" y="94.84" width="55.33" height="11.7" transform="translate(6.32 216.65) rotate(-45)"/><rect class="cls-4" x="227.63" y="73.03" width="11.7" height="55.33" transform="translate(-2.82 194.58) rotate(-45)"/><rect class="cls-2" x="78.39" y="44.62" width="101.14" height="101.14" rx="17.3"/><rect class="cls-4" x="117.41" y="94.84" width="55.33" height="11.7" transform="translate(-28.71 132.08) rotate(-45)"/><rect class="cls-4" x="108.01" y="73.03" width="11.7" height="55.33" transform="translate(-37.85 110) rotate(-45)"/><path class="cls-7" d="M221.53,414.5V233.91a12.71,12.71,0,0,1,12.72-12.72h99.2a12.72,12.72,0,0,1,12.72,12.72V412.47Z"/><rect class="cls-7" x="268.77" y="455.08" width="18.23" height="69.78"/><rect class="cls-7" x="272.54" y="504.74" width="10.69" height="69.78"/><path class="cls-7" d="M343.29,463.88H226.83c-6.1,0-11.05-4.13-11.05-9.22v-8.38c0-5.1,4.95-9.22,11.05-9.22H343.29c6.1,0,11,4.12,11,9.22v8.38C354.34,459.75,349.39,463.88,343.29,463.88Z"/><path class="cls-7" d="M343.29,439.29H226.83c-6.1,0-11.05-4.13-11.05-9.22v-8.38c0-5.09,4.95-9.22,11.05-9.22H343.29c6.1,0,11,4.13,11,9.22v8.38C354.34,435.16,349.39,439.29,343.29,439.29Z"/><path class="cls-7" d="M225.59,575.79a29.91,29.91,0,0,1-5.06-16.48c0-21.93,25.73-39.78,57.36-39.78s57.35,17.85,57.35,39.78a29.66,29.66,0,0,1-4.36,15.36l-8.43-5a20,20,0,0,0,3-10.33c0-16.24-21.77-30-47.54-30s-47.55,13.73-47.55,30a20.28,20.28,0,0,0,3.48,11.14Z"/><path class="cls-2" d="M216.62,574.83a11.63,11.63,0,1,1,11.63,11.62A11.63,11.63,0,0,1,216.62,574.83Z"/><path class="cls-2" d="M265.65,574.83a11.63,11.63,0,1,1,11.63,11.62A11.63,11.63,0,0,1,265.65,574.83Z"/><path class="cls-8" d="M314,202.54c-13.56-19.49-38.15-29.66-58.49-14.41s-2.54,39-23.73,52.56S180,255.1,183.41,288.16C186,313,211.53,331.5,237,326.41s70.21-40,71.06-81.48S314,202.54,314,202.54Z"/><path class="cls-5" d="M353.46,403.56H245.26v26A25.46,25.46,0,0,0,270.71,455h82.75a25.45,25.45,0,0,0,25.45-25.45V429A25.45,25.45,0,0,0,353.46,403.56Z"/><path class="cls-9" d="M245.26,403.24H326l10.08-119.61a18.37,18.37,0,0,0-18.31-19.91H253.49a18.37,18.37,0,0,0-18.3,19.91Z"/><path class="cls-5" d="M377.34,423.62l13.33,148.31h-19.6S339.72,475.36,336.58,444s19.6-25.86,19.6-25.86Z"/><path class="cls-5" d="M315.42,423.62l13.32,148.31H309.15S277.79,475.36,274.66,444s19.59-25.86,19.59-25.86Z"/><polygon class="cls-9" points="334.23 274.69 363.23 329.56 324.04 326.43 334.23 274.69"/><path class="cls-9" d="M240,269.79l-50.55,72.9c-2.34,5-.54,13,4.7,14.7L272.31,375l10.19-17.24L227.63,338,267,298.6Z"/><g class="cls-10"><rect class="cls-4" x="189.31" y="316.88" width="19.06" height="19.06"/><rect class="cls-4" x="208.37" y="335.94" width="19.06" height="19.06"/><rect class="cls-4" x="189.31" y="355.01" width="19.06" height="19.06"/><rect class="cls-4" x="208.37" y="374.07" width="19.06" height="19.06"/><rect class="cls-4" x="189.31" y="393.13" width="19.06" height="19.06"/><rect class="cls-4" x="208.37" y="412.19" width="19.06" height="19.06"/><rect class="cls-4" x="227.43" y="316.88" width="19.06" height="19.06"/><rect class="cls-4" x="246.49" y="335.94" width="19.06" height="19.06"/><rect class="cls-4" x="227.43" y="355.01" width="19.06" height="19.06"/><rect class="cls-4" x="246.49" y="374.07" width="19.06" height="19.06"/><rect class="cls-4" x="227.43" y="393.13" width="19.06" height="19.06"/><rect class="cls-4" x="246.49" y="412.19" width="19.06" height="19.06"/><rect class="cls-4" x="189.31" y="202.51" width="19.06" height="19.06"/><rect class="cls-4" x="208.37" y="221.57" width="19.06" height="19.06"/><rect class="cls-4" x="189.31" y="240.63" width="19.06" height="19.06"/><rect class="cls-4" x="208.37" y="259.7" width="19.06" height="19.06"/><rect class="cls-4" x="189.31" y="278.76" width="19.06" height="19.06"/><rect class="cls-4" x="208.37" y="297.82" width="19.06" height="19.06"/><rect class="cls-4" x="227.43" y="202.51" width="19.06" height="19.06"/><rect class="cls-4" x="246.49" y="221.57" width="19.06" height="19.06"/><rect class="cls-4" x="227.43" y="240.63" width="19.06" height="19.06"/><rect class="cls-4" x="246.49" y="259.7" width="19.06" height="19.06"/><rect class="cls-4" x="227.43" y="278.76" width="19.06" height="19.06"/><rect class="cls-4" x="246.49" y="297.82" width="19.06" height="19.06"/><rect class="cls-4" x="265.98" y="316.88" width="19.06" height="19.06"/><rect class="cls-4" x="285.04" y="335.94" width="19.06" height="19.06"/><rect class="cls-4" x="265.98" y="355.01" width="19.06" height="19.06"/><rect class="cls-4" x="285.04" y="374.07" width="19.06" height="19.06"/><rect class="cls-4" x="265.98" y="393.13" width="19.06" height="19.06"/><rect class="cls-4" x="285.04" y="412.19" width="19.06" height="19.06"/><rect class="cls-4" x="304.1" y="316.88" width="19.06" height="19.06"/><rect class="cls-4" x="323.17" y="335.94" width="19.06" height="19.06"/><rect class="cls-4" x="304.1" y="355.01" width="19.06" height="19.06"/><rect class="cls-4" x="323.17" y="374.07" width="19.06" height="19.06"/><rect class="cls-4" x="304.1" y="393.13" width="19.06" height="19.06"/><rect class="cls-4" x="323.17" y="412.19" width="19.06" height="19.06"/><rect class="cls-4" x="265.98" y="202.51" width="19.06" height="19.06"/><rect class="cls-4" x="285.04" y="221.57" width="19.06" height="19.06"/><rect class="cls-4" x="265.98" y="240.63" width="19.06" height="19.06"/><rect class="cls-4" x="285.04" y="259.7" width="19.06" height="19.06"/><rect class="cls-4" x="265.98" y="278.76" width="19.06" height="19.06"/><rect class="cls-4" x="285.04" y="297.82" width="19.06" height="19.06"/><rect class="cls-4" x="304.1" y="202.51" width="19.06" height="19.06"/><rect class="cls-4" x="323.17" y="221.57" width="19.06" height="19.06"/><rect class="cls-4" x="304.1" y="240.63" width="19.06" height="19.06"/><rect class="cls-4" x="323.17" y="259.7" width="19.06" height="19.06"/><rect class="cls-4" x="304.1" y="278.76" width="19.06" height="19.06"/><rect class="cls-4" x="323.17" y="297.82" width="19.06" height="19.06"/></g><path class="cls-11" d="M273.59,370.82h32.14l2.35-14.11H283.82a9.31,9.31,0,0,0-9.17,7.77Z"/><path class="cls-8" d="M390.28,571.93H371.07v14.73H410c2.57,0,3.46-5.77,1.2-7Z"/><path class="cls-8" d="M328.74,571.93h-19.2v14.73h38.95c2.57,0,3.45-5.77,1.2-7Z"/><g class="cls-12"><rect class="cls-13" x="259.14" y="323.61" width="1.31" height="51.64" transform="translate(-155.03 481.76) rotate(-71.06)"/><rect class="cls-13" x="250.39" y="341.68" width="1.31" height="56.31" transform="translate(-138.58 588.91) rotate(-85.18)"/></g><polygon class="cls-14" points="290.39 370.96 391.58 370.96 405.46 308.31 304.27 308.31 290.39 370.96"/><rect class="cls-14" x="265.64" y="370.52" width="126.02" height="10.68"/><path class="cls-13" d="M343.24,341.32a6.67,6.67,0,1,0,6.67-6.66A6.67,6.67,0,0,0,343.24,341.32Z"/><rect class="cls-8" x="151.9" y="380.78" width="366.78" height="8.59"/><rect class="cls-8" x="151.9" y="382.33" width="3.14" height="203.8"/><rect class="cls-8" x="515.54" y="382.33" width="3.14" height="203.8"/><g class="cls-12"><circle class="cls-15" cx="285.87" cy="269.64" r="26.56" transform="translate(-42.05 486.18) rotate(-76.76)"/></g><path class="cls-15" d="M280.54,271.17h12.54c3.9,0,7.05-3.56,7.05-7.95V247.76c0-4.39-3.15-7.95-7.05-7.95H280.54c-3.9,0-7.06,3.56-7.06,7.95v15.46C273.48,267.61,276.64,271.17,280.54,271.17Z"/><path class="cls-11" d="M316.89,239.79c-5,17-19.29,14.44-36.33,9.4s-22.08-26.63-17.05-43.68,18.24-23.09,35.29-18S321.93,222.74,316.89,239.79Z"/><path class="cls-6" d="M477.76,321.71c4.75-.95,17.57-10.92,28-38.46,6-15.74,22.79-96.87,0-102.57s-18.52,35.14-18.52,72.65C487.26,276.2,477.76,321.71,477.76,321.71Z"/><path class="cls-6" d="M467.32,325.51c12-.8,9.49-122,10.44-150.53S484.41,40.13,468.27,23s-32.77-1.9-34.19,20.18c-.68,10.47,2.85,86.66,4.75,108.5s4.27,71.23,6.17,102.57S453.07,326.46,467.32,325.51Z"/><path class="cls-6" d="M445,326.93s-26.61-52.49-33.24-93.07c-11.87-72.65-14.24-143.4,1.9-142.45S431,163.59,431.7,194c1.9,78.83,20.42,128.21,20.42,128.21Z"/><path class="cls-2" d="M447.23,324.78l1.24-.45c-.1-.26-9.48-26.28-15.67-43.68-12.17-34.17-14.19-79.6-14.21-80l-1.31.05c0,.46,2,46.08,14.28,80.44C437.76,298.5,447.14,324.52,447.23,324.78Z"/><path class="cls-2" d="M463.34,317.43h1.31c0-16.21-2.82-63.66-2.85-64.14l-1.31.08C460.52,253.85,463.34,301.26,463.34,317.43Z"/><path class="cls-2" d="M482.4,321.25c.1-.25,10.06-24.52,15.7-46.39a152.89,152.89,0,0,0,4.3-42.94l-1.31.09a151.19,151.19,0,0,1-4.26,42.52c-5.62,21.79-15.54,46-15.64,46.22Z"/><path class="cls-4" d="M456.87,254.28a3.56,3.56,0,1,0,3.56-3.56A3.56,3.56,0,0,0,456.87,254.28Z"/><path class="cls-4" d="M498.18,232.44a3.56,3.56,0,1,0,3.56-3.56A3.57,3.57,0,0,0,498.18,232.44Z"/><path class="cls-4" d="M414.37,200.62a3.56,3.56,0,1,0,3.56-3.56A3.56,3.56,0,0,0,414.37,200.62Z"/><polygon class="cls-2" points="492.48 310.79 437.41 310.79 447 381.39 482.88 381.39 492.48 310.79"/><g class="cls-16"><rect class="cls-17" x="403.45" y="316.72" width="102.57" height="5.7"/></g><path class="cls-8" d="M291.06,183.9c8.48,1.69,15.68,3,21.62,12.71s4.66,12.71,3,12.71-41.11,6.79-43.23,5.51-11.86-19.49-3-25S291.06,183.9,291.06,183.9Z"/><path class="cls-11" d="M263.51,222.46c-2.12-2.54-10.59,1.28-6.78,8.06s11,3.39,11,3.39Z"/></svg>