<?xml version="1.0" encoding="utf-8"?>
<!-- Generator: Adobe Illustrator 24.0.0, SVG Export Plug-In . SVG Version: 6.00 Build 0)  -->
<svg version="1.1" id="Layer_1" xmlns="http://www.w3.org/2000/svg" xmlns:xlink="http://www.w3.org/1999/xlink" x="0px" y="0px"
	 viewBox="0 0 600 600" enable-background="new 0 0 600 600" xml:space="preserve">
<g>
	<g>
		<rect x="414.767" y="373.72" fill="#231F20" width="0.941" height="86.087"/>
	</g>
	<g>
		<rect x="434.543" y="229.55" fill="#231F20" width="0.941" height="217.393"/>
	</g>
	<g>
		<rect x="424.655" y="299.673" fill="#231F20" width="0.941" height="160.134"/>
	</g>
	<g>
		<rect x="454.318" y="269.238" fill="#231F20" width="0.941" height="165.282"/>
	</g>
	<g>
		<rect x="444.431" y="226.276" fill="#231F20" width="0.941" height="223.198"/>
	</g>
	<g>
		
			<ellipse transform="matrix(0.7071 -0.7071 0.7071 0.7071 -185.7111 437.0967)" fill="#CCCCCC" cx="434.767" cy="442.721" rx="31.713" ry="31.713"/>
	</g>
	<g>
		<defs>
			<path id="SVGID_1_" d="M414.549,408.256h40.435c2.158,0,3.908,2.337,3.908,5.22v8.171c0,2.883-1.75,5.22-3.908,5.22h-40.435
				c-2.158,0-3.907-2.337-3.907-5.22v-8.171C410.642,410.593,412.391,408.256,414.549,408.256z"/>
		</defs>
		<use xlink:href="#SVGID_1_"  overflow="visible" fill="#CCCCCC"/>
		<clipPath id="SVGID_2_">
			<use xlink:href="#SVGID_1_"  overflow="visible"/>
		</clipPath>
		<g clip-path="url(#SVGID_2_)">
			<rect x="402.406" y="419.648" fill="#4A5EAA" width="59.215" height="0.941"/>
		</g>
	</g>
	<g>
		<g>
			<path fill="#FAC0C1" d="M425.386,223.994c-1.029,4.043-2.103,8.061-3.668,11.936c0.51-1.209,1.02-2.418,1.531-3.627
				c-0.127,0.295-0.254,0.591-0.381,0.886c-1.692,3.934-2.717,7.387-1.531,11.7c1.044,3.796,3.584,7.086,6.978,9.074
				c3.507,2.054,7.78,2.609,11.7,1.531c3.404-0.936,7.611-3.577,9.074-6.978c2.33-5.418,4.129-10.745,5.58-16.449
				c2.039-8.015-2.514-16.452-10.605-18.678C436.205,211.228,427.426,215.976,425.386,223.994L425.386,223.994z"/>
		</g>
	</g>
	<g>
		<g>
			<path fill="#FAC0C1" d="M377.485,366.714c2.91,8.649,8.704,15.916,15.548,21.781c6.293,5.394,16.799,2.37,21.115-3.905
				c5.06-7.356,2.373-15.734-3.905-21.115c3.324,2.849-0.144-0.374-0.778-1.111c-0.561-0.653-3.27-4.735-1.065-1.242
				c-1.511-2.395-2.687-4.993-3.589-7.672c-2.644-7.858-13.57-10.29-20.294-7.031C376.37,350.367,374.847,358.876,377.485,366.714
				L377.485,366.714z"/>
		</g>
	</g>
	<g>
		<g>
			<path fill="#FAC0C1" d="M411.089,308.406c-0.047,5.442-1.118,10.714-2.109,16.045c-1.269,6.831-1.457,13.44-0.412,20.341
				c1.241,8.191,10.252,13.352,17.995,11.716c8.452-1.786,12.956-9.815,11.716-17.995c-0.264-1.914-0.321-2.207-0.17-0.879
				c-0.016-1.089,0.013-2.176,0.088-3.262c0.13-2.711,0.629-5.41,1.101-8.076c0.946-5.347,2.061-10.591,2.109-16.045
				c0.073-8.269-5.664-15.565-14.238-16.081C419.237,293.691,411.162,300.129,411.089,308.406L411.089,308.406z"/>
		</g>
	</g>
	<g>
		<g>
			<path fill="#FAC0C1" d="M451.717,278.039c1.03,2.048,2.025,4.111,2.984,6.193c0.418,0.907,0.818,1.821,1.217,2.736
				c-1.826-4.181,0.002,0.072,0.342,0.94c1.501,3.842,3.296,6.917,6.978,9.074c3.507,2.055,7.781,2.609,11.7,1.531
				c7.355-2.023,13.62-10.958,10.604-18.677c-2.274-5.821-4.797-11.541-7.604-17.124c-3.715-7.39-13.977-9.429-20.774-5.447
				C449.694,261.64,447.999,270.644,451.717,278.039L451.717,278.039z"/>
		</g>
	</g>
	<g>
		<g>
			<path fill="#FAC0C1" d="M459.308,320.241c-1.072,1.677-2.225,3.292-3.439,4.869c0.791-1.025,1.583-2.049,2.374-3.073
				c-0.856,1.094-1.736,2.169-2.635,3.229c-2.69,3.173-4.447,6.45-4.447,10.736c0,4.011,1.613,7.902,4.447,10.736
				c2.835,2.835,6.726,4.447,10.736,4.447c3.732,0,8.244-1.507,10.736-4.447c3.014-3.555,5.936-7.24,8.448-11.171
				c4.461-6.981,1.477-16.718-5.447-20.774C472.728,310.486,463.756,313.281,459.308,320.241L459.308,320.241z"/>
		</g>
	</g>
	<g>
		<g>
			<path fill="#FAC0C1" d="M447.326,392.962c3.549,0.266,7.094-0.47,10.595-0.951c-1.345,0.181-2.691,0.362-4.036,0.542
				c1.644-0.213,3.254-0.35,4.913-0.266c8.273,0.418,15.184-7.223,15.184-15.183c0-8.593-6.92-14.766-15.184-15.183
				c-3.539-0.179-7.076,0.556-10.566,1.029c1.345-0.181,2.691-0.362,4.036-0.542c-1.658,0.205-3.273,0.314-4.942,0.189
				c-8.264-0.619-15.183,7.375-15.183,15.183C432.143,386.523,439.076,392.344,447.326,392.962L447.326,392.962z"/>
		</g>
	</g>
	<g>
		<path fill="#FFFFFF" d="M391.609,261.097c0,0.932-0.755,1.687-1.687,1.687c-0.932,0-1.687-0.755-1.687-1.687
			c0-0.932,0.755-1.687,1.687-1.687C390.854,259.41,391.609,260.165,391.609,261.097z"/>
	</g>
	<g>
		<path fill="#FFFFFF" d="M436.485,241.696c0,0.932-0.755,1.687-1.687,1.687s-1.687-0.755-1.687-1.687
			c0-0.932,0.755-1.687,1.687-1.687S436.485,240.764,436.485,241.696z"/>
	</g>
	<g>
		<path fill="#FFFFFF" d="M458.248,272.063c0,0.932-0.755,1.687-1.687,1.687c-0.932,0-1.687-0.756-1.687-1.687
			c0-0.932,0.755-1.687,1.687-1.687C457.492,270.376,458.248,271.131,458.248,272.063z"/>
	</g>
	<g>
		<path fill="#FFFFFF" d="M436.207,317.576c0,0.932-0.755,1.687-1.687,1.687c-0.932,0-1.687-0.755-1.687-1.687
			s0.755-1.687,1.687-1.687C435.452,315.889,436.207,316.644,436.207,317.576z"/>
	</g>
	<g>
		<path fill="#FFFFFF" d="M475.455,332.291c0,0.932-0.755,1.687-1.687,1.687c-0.932,0-1.687-0.755-1.687-1.687
			s0.755-1.687,1.687-1.687C474.7,330.604,475.455,331.359,475.455,332.291z"/>
	</g>
	<g>
		<path fill="#FFFFFF" d="M465.04,377.948c0,0.932-0.755,1.687-1.687,1.687s-1.687-0.755-1.687-1.687s0.755-1.687,1.687-1.687
			S465.04,377.016,465.04,377.948z"/>
	</g>
	<g>
		<path fill="#FFFFFF" d="M396.088,369.104c0.17,0.916-0.436,1.796-1.352,1.966c-0.916,0.17-1.796-0.436-1.966-1.352
			c-0.169-0.916,0.436-1.796,1.352-1.966C395.038,367.583,395.919,368.188,396.088,369.104z"/>
	</g>
	<g>
		<g>
			<rect x="174.215" y="277.441" fill="#CCCCCC" width="4.9" height="106.803"/>
		</g>
	</g>
	<g>
		<g>
			<rect x="152.167" y="287.158" fill="#CCCCCC" width="4.899" height="94.253"/>
		</g>
	</g>
	<g>
		<g>
			<rect x="197.488" y="293.96" fill="#CCCCCC" width="4.899" height="94.253"/>
		</g>
	</g>
	<g>
		<defs>
			<path id="SVGID_3_" d="M215.629,377.972h-75.147c3.355,6.136,8.183,11.343,13.99,15.189v81.578h47.168v-81.577
				C207.446,389.315,212.274,384.109,215.629,377.972z"/>
		</defs>
		<use xlink:href="#SVGID_3_"  overflow="visible" fill="#C4C4C4"/>
		<clipPath id="SVGID_4_">
			<use xlink:href="#SVGID_3_"  overflow="visible"/>
		</clipPath>
		<g clip-path="url(#SVGID_4_)">
			<rect x="146.821" y="393.426" fill="#FAC0C1" width="91.254" height="0.941"/>
		</g>
	</g>
	<g>
		<path fill="#FAC0C1" d="M207.249,237.518c-8.574-18.373-35.781-20.979-47.771,2.041c-10.207,19.598-34.452,12.708-41.238,31.031
			c-12.249,33.072,31.05,45.75,49.404,28.581c12.657-11.841,28.774-4.796,42.871,6.533c22.865,18.373,58.387-20.823,35.93-39.197
			C229.016,252.247,217.813,260.158,207.249,237.518z"/>
	</g>
	<g>
		<path fill="#FAC0C1" d="M145.044,355.535c-4.004,3.354,1.024,12.292,11.063,10.448c10.039-1.844,15.16-6.556,9.629-11.678
			C160.204,349.184,152.624,349.184,145.044,355.535z"/>
	</g>
	<g>
		<path fill="#FAC0C1" d="M173.121,333.364c6.841-12.542,17.327-2.031,23.863,1.164c13.096,6.402,15.225-1.991,22.117,1.455
			c6.984,3.492,4.074,12.514-10.767,15.133C195.434,353.392,166.137,346.168,173.121,333.364z"/>
	</g>
	<g>
		<path fill="#A6B8DF" d="M427.654,340.034H197.405c-11.338,0-20.529-9.191-20.529-20.529V157.438
			c0-11.338,9.191-20.529,20.529-20.529h230.249c11.338,0,20.529,9.191,20.529,20.529v162.068
			C448.183,330.843,438.992,340.034,427.654,340.034z"/>
	</g>
	<g>
		<rect x="197.959" y="168.854" fill="#FFFFFF" width="171.941" height="5.609"/>
	</g>
	<g>
		<rect x="197.959" y="213.408" fill="#FFFFFF" width="171.941" height="5.609"/>
	</g>
	<g>
		<rect x="197.959" y="257.962" fill="#FFFFFF" width="171.941" height="5.608"/>
	</g>
	<g>
		<rect x="197.959" y="302.516" fill="#FFFFFF" width="171.941" height="5.609"/>
	</g>
	<g>
		<path fill="#FFFFFF" d="M406.402,184.793h-17.64c-2.533,0-4.586-2.054-4.586-4.587v-17.64c0-2.533,2.054-4.586,4.586-4.586h17.64
			c2.533,0,4.586,2.054,4.586,4.586v17.64C410.988,182.74,408.935,184.793,406.402,184.793z"/>
	</g>
	<g>
		<path fill="#FFFFFF" d="M406.402,229.033h-17.64c-2.533,0-4.586-2.053-4.586-4.586v-17.64c0-2.533,2.054-4.587,4.586-4.587h17.64
			c2.533,0,4.586,2.054,4.586,4.587v17.64C410.988,226.98,408.935,229.033,406.402,229.033z"/>
	</g>
	<g>
		<path fill="#FFFFFF" d="M406.402,273.273h-17.64c-2.533,0-4.586-2.053-4.586-4.586v-17.64c0-2.533,2.054-4.586,4.586-4.586h17.64
			c2.533,0,4.586,2.054,4.586,4.586v17.64C410.988,271.22,408.935,273.273,406.402,273.273z"/>
	</g>
	<g>
		<path fill="#FFFFFF" d="M406.402,317.513h-17.64c-2.533,0-4.586-2.054-4.586-4.586v-17.64c0-2.533,2.054-4.586,4.586-4.586h17.64
			c2.533,0,4.586,2.053,4.586,4.586v17.64C410.988,315.46,408.935,317.513,406.402,317.513z"/>
	</g>
	<g>
		
			<rect x="382.801" y="258.912" transform="matrix(0.7071 -0.7071 0.7071 0.7071 -70.6889 353.6778)" fill="#F6948F" width="17.564" height="6.512"/>
	</g>
	<g>
		<path fill="#F8B2B6" d="M385.953,277.151c2.871-0.827,7.785-5.486,7.003-7.742c-0.768-2.214-2.556-8.643-6.802-6.449l-7.557,5.295
			l3.69,9.952L385.953,277.151z"/>
	</g>
	<g>
		<path fill="#FAC0C1" d="M255.864,335.339h60.667l6.618,70.384l-8.237,59.223h-24.237l9.884-53.104c0,0-8.145-35.443-9.309-48.135
			h-8.032l-4.308,49.076l-20.708,51.771h-24.944l21.65-56.006c0,0,0.845-56.482,1.002-64.85
			C255.599,342.233,255.864,335.339,255.864,335.339z"/>
	</g>
	<g>
		<path fill="#4A5EAA" d="M255.864,335.339h60.667l7.574-80.583c0.678-6.573-5.674-12.215-13.755-12.215h-48.305
			c-8.081,0-14.434,5.642-13.755,12.215L255.864,335.339z"/>
	</g>
	<g>
		<path fill="#E98896" d="M286.49,251.079c-10.746,0-10.683-7.307-10.683-9.064v-11.891c0-2.693,4.017-2.466,6.407-2.466h7.693
			c2.39,0,6.407,2.183,6.407,4.876v9.481C296.314,243.752,295.184,251.079,286.49,251.079z"/>
	</g>
	<g>
		<path fill="#F8B2B6" d="M302.997,227.645c-3.09,10.457-11.834,8.855-22.29,5.765c-10.456-3.09-16.428-14.071-13.338-24.528
			c3.09-10.457,14.072-16.428,24.528-13.338C302.354,198.634,306.087,217.189,302.997,227.645z"/>
	</g>
	<g>
		<path fill="#4A5EAA" d="M324.404,252.162l16.159,32.136l37.651-16.943c0-1.04,8.917,7.928,7.53,10.354
			c-2.248,3.935-28.238,19.296-42.058,30.219c-7.731,6.11-26.65-18.996-27.731-20.798c-1.727-2.878-4.067-20.708-4.392-30.657
			c-0.075-2.298,1.641-4.256,3.928-4.492l3.583-6.449C321.06,245.328,323.708,250.291,324.404,252.162z"/>
	</g>
	<g>
		<path fill="#4A5EAA" d="M253.289,245.187c0,0-28.051,29.919-37.947,39.343c-5.46,5.2,0,9.099,3.12,12.999
			c8.651,10.814,36.658,30.158,36.658,30.158l-1.56-16.379l-16.899-19.759c0,0,23.769-18.355,24.562-19.678
			c2.164-3.606,0.361-19.473,0.361-19.473L253.289,245.187z"/>
	</g>
	<g>
		<path fill="#F6948F" d="M308.955,464.779h-11.78v9.036h23.892c1.577,0,2.119-3.543,0.739-4.306L308.955,464.779z"/>
	</g>
	<g>
		<path fill="#F6948F" d="M252.949,464.779h-11.78v9.036h23.892c1.577,0,2.119-3.543,0.738-4.306L252.949,464.779z"/>
	</g>
	<g>
		<defs>
			<path id="SVGID_5_" d="M255.864,335.339h60.667l7.574-80.583c0.678-6.573-5.674-12.215-13.755-12.215h-48.305
				c-8.081,0-14.434,5.642-13.755,12.215L255.864,335.339z"/>
		</defs>
		<clipPath id="SVGID_6_">
			<use xlink:href="#SVGID_5_"  overflow="visible"/>
		</clipPath>
		<g clip-path="url(#SVGID_6_)">
			<rect x="319.171" y="265.741" fill="#F16363" width="0.941" height="43.995"/>
		</g>
		<g clip-path="url(#SVGID_6_)">
			
				<rect x="251.71" y="267.872" transform="matrix(0.998 -0.0634 0.0634 0.998 -17.8543 16.5711)" fill="#F16363" width="0.941" height="43.479"/>
		</g>
	</g>
	<g>
		<polygon fill="#FDE2E3" points="395.489,253.656 400.095,258.261 401.955,253.459 400.717,252.081 		"/>
	</g>
	<g>
		<path fill="#263B97" d="M400.717,252.081l1.238,1.378c0,0,1.757-1.664,1.08-2.341
			C402.225,250.308,400.717,252.081,400.717,252.081z"/>
	</g>
	<g>
		<defs>
			<path id="SVGID_7_" d="M255.864,335.339h60.667l6.618,70.384l-8.237,59.223h-24.237l9.884-53.104c0,0-8.145-35.443-9.309-48.135
				h-8.032l-4.308,49.076l-20.708,51.771h-24.944l21.65-56.006c0,0,0.845-56.482,1.002-64.85
				C255.599,342.233,255.864,335.339,255.864,335.339z"/>
		</defs>
		<clipPath id="SVGID_8_">
			<use xlink:href="#SVGID_7_"  overflow="visible"/>
		</clipPath>
		<g clip-path="url(#SVGID_8_)">
			<g>
				<rect x="222.119" y="339.207" fill="#0D133D" width="109.502" height="2.41"/>
			</g>
			<g>
				<rect x="222.119" y="347.643" fill="#0D133D" width="109.502" height="2.411"/>
			</g>
			<g>
				<rect x="222.119" y="356.08" fill="#0D133D" width="109.502" height="2.41"/>
			</g>
			<g>
				<rect x="222.119" y="364.516" fill="#0D133D" width="109.502" height="2.41"/>
			</g>
			<g>
				<rect x="222.119" y="372.953" fill="#0D133D" width="109.502" height="2.41"/>
			</g>
			<g>
				<rect x="222.119" y="381.389" fill="#0D133D" width="109.502" height="2.41"/>
			</g>
			<g>
				<rect x="222.119" y="389.826" fill="#0D133D" width="109.502" height="2.41"/>
			</g>
			<g>
				<rect x="222.119" y="398.262" fill="#0D133D" width="109.502" height="2.41"/>
			</g>
			<g>
				<rect x="222.119" y="406.699" fill="#0D133D" width="109.502" height="2.411"/>
			</g>
			<g>
				<rect x="222.119" y="415.135" fill="#0D133D" width="109.502" height="2.41"/>
			</g>
			<g>
				<rect x="222.119" y="423.572" fill="#0D133D" width="109.502" height="2.41"/>
			</g>
			<g>
				<rect x="222.119" y="432.008" fill="#0D133D" width="109.502" height="2.411"/>
			</g>
			<g>
				<rect x="222.119" y="440.445" fill="#0D133D" width="109.502" height="2.411"/>
			</g>
			<g>
				<rect x="222.119" y="448.881" fill="#0D133D" width="109.502" height="2.41"/>
			</g>
			<g>
				<rect x="222.119" y="457.318" fill="#0D133D" width="109.502" height="2.411"/>
			</g>
		</g>
	</g>
	<g>
		<path fill="#F6948F" d="M286.596,219.978c3.288-1.409-2.07-6.619,2.04-9.569c6.118-4.393,11.295-6.432,12.55-14.276
			c1.39-8.687-8.158-14.119-9.727-14.119c-1.569,0,3.295,2.51-2.039,6.275c-4.477,3.16-24.16,8.315-25.258,21.336
			c-1.113,13.191,2.824,17.257,7.844,19.767c5.02,2.51-1.569-5.334,2.51-10.354C278.595,214.016,284.4,220.919,286.596,219.978z"/>
	</g>
	<g>
		<g>
			
				<rect x="391.759" y="165.514" transform="matrix(0.7071 -0.7071 0.7071 0.7071 -7.0236 328.738)" fill="#F6948F" width="3.103" height="14.667"/>
		</g>
		<g>
			
				<rect x="394.25" y="171.296" transform="matrix(0.7071 -0.7071 0.7071 0.7071 -4.5924 334.6084)" fill="#F6948F" width="14.667" height="3.103"/>
		</g>
	</g>
	<g>
		<g>
			
				<rect x="391.759" y="209.519" transform="matrix(0.7071 -0.7071 0.7071 0.7071 -38.1397 341.6267)" fill="#F6948F" width="3.103" height="14.667"/>
		</g>
		<g>
			
				<rect x="394.25" y="215.301" transform="matrix(0.7071 -0.7071 0.7071 0.7071 -35.7099 347.4986)" fill="#F6948F" width="14.667" height="3.103"/>
		</g>
	</g>
	<g>
		<path fill="#4A5EAA" d="M217.412,149.695c0,2.426-1.967,4.393-4.393,4.393l0,0c-2.426,0-4.393-1.967-4.393-4.393v-20.708
			c0-2.426,1.967-4.393,4.393-4.393l0,0c2.426,0,4.393,1.967,4.393,4.393V149.695z"/>
	</g>
	<g>
		<path fill="#4A5EAA" d="M421.984,149.695c0,2.426-1.967,4.393-4.393,4.393l0,0c-2.426,0-4.393-1.967-4.393-4.393v-20.708
			c0-2.426,1.966-4.393,4.393-4.393l0,0c2.426,0,4.393,1.967,4.393,4.393V149.695z"/>
	</g>
</g>
</svg>
